<svg xmlns="http://www.w3.org/2000/svg" width="344" height="302.356" viewBox="0 0 344 302.356">
  <g id="Group_685" data-name="Group 685" transform="translate(6225 5165)">
    <text id="Children_s_Education_" data-name="Children&apos;s
Education?" transform="translate(-5943 -5141)" fill="#393939" font-size="11.5" font-family="Montserrat-Bold, Montserrat" font-weight="700"><tspan x="-30.032" y="0">Children&apos;s</tspan><tspan x="-33.816" y="14">Education?</tspan></text>
    <g id="Group_684" data-name="Group 684" transform="translate(-6841.925 -5808.528)">
      <path id="Path_978" data-name="Path 978" d="M807.116,1090.045l-16.52-3.878c1.013-4.5,1.9-9.259,2.6-14.28a175.645,175.645,0,0,0,.156-46.734l15.617,1.4Q808.041,1058.3,807.116,1090.045Z" transform="translate(-65.289 -222.822)" fill="#d4998a"/>
      <path id="Path_979" data-name="Path 979" d="M1008.816,1083.3l-14.057-.975q-2.282-31.951-4.564-63.9l15.616,1.36a209.426,209.426,0,0,0,.379,47.441C1006.887,1072.9,1007.786,1078.262,1008.816,1083.3Z" transform="translate(-175.033 -219.122)" fill="#d4998a"/>
      <path id="Path_980" data-name="Path 980" d="M897.128,1158.473a48.668,48.668,0,0,0-13.478,51.611c-7.062-9.693-12.573-17.391-16.108-22.354-6.461-9.071-8.993-12.757-13.806-17.751-5.431-5.634-9.088-9.427-14.793-12.492a45.134,45.134,0,0,0-36.743-2.118c-6.161,2.4-9.739,5.362-20.783,16.582-14.418,14.647-24.955,25.456-30.572,31.23a77.491,77.491,0,0,0,1.933-11.456,66.611,66.611,0,0,0-.109-15.046,53.224,53.224,0,0,0-9.084-22.887c8.9-2.562,13.672-6.559,16.4-9.869,1.576-1.911,2.2-3.26,4.76-6.058,3.227-3.526,6.115-5.62,10.385-8.655,8.385-5.958,12.577-8.937,12.982-9.087,7.919-2.928,13.821,1.52,27.694,5.625a126.034,126.034,0,0,0,26.421,4.783l15.45-8.219Z" transform="translate(-39.441 -274.519)" fill="#455960"/>
      <path id="Path_981" data-name="Path 981" d="M756.823,805.513" transform="translate(-46.72 -102.059)" fill="#749698"/>
      <path id="Path_982" data-name="Path 982" d="M906.765,887.464c4.073,3.894-1.267,15.652-4.677,23-5.221,11.244-10.9,23.474-16.194,22.672-3.659-.554-3.134-6.726-9.716-21.343-6.247-13.874-12.359-20.835-9.614-24.413,2.028-2.643,6.329-.1,9.963-3.574,3.734-3.57,1.151-8.126,4.634-11.211,3.639-3.224,11.4-2.625,14.2,1,2.679,3.457-.619,7.781,2.268,10.949C900.291,887.458,904.3,885.106,906.765,887.464Z" transform="translate(-106.686 -137.783)" fill="#d4998a"/>
      <path id="Path_983" data-name="Path 983" d="M883.182,776.722a3.939,3.939,0,0,1-.441-.069c.069-.112.142-.221.215-.334A3.8,3.8,0,0,1,883.182,776.722Z" transform="translate(-115.952 -86.007)" fill="#d4998a"/>
      <path id="Path_984" data-name="Path 984" d="M913.3,795.178c-.02.433-.041.88-.065,1.344-.016.344-.035.7-.055,1.057,0,.049,0,.1-.008.149v0c-.035.661-.071,1.352-.112,2.078-.108,1.968-.269,3.8-.466,5.5a71.254,71.254,0,0,1-2.6,12.715c-1.112,3.664-1.67,5.5-2.583,6.7-5.578,7.349-21.2,8.251-28.568,1-2.558-2.515-3.365-5.775-4.984-12.29-.573-2.31-1.159-4.669-1.621-7.1a48.009,48.009,0,0,1-.876-7.44c-.01-.291-.016-.582-.018-.874,0-.138,0-.275,0-.411,0-1.021.045-2.054.14-3.1,0-.039.006-.077.012-.118a32.916,32.916,0,0,1,.58-3.825q.24-1.147.577-2.322c.02-.081.045-.163.071-.246.045-.157.092-.313.141-.472.289-.934.6-1.94.968-2.983.24-.679.5-1.373.8-2.074a3.835,3.835,0,0,1,.588,1.645,3.758,3.758,0,0,1,.026.454,2.968,2.968,0,0,0-1.436,5.142c.891-2.245,2.176-4.641,4.455-5.531,3.406-1.332,7.743,1.193,11.542,4.343-2.842-5.834-3.325-7.79-2.881-8.073,1.07-.679,7.438,8.4,9.191,7.41,1.251-.71-.738-6.029,0-6.312.856-.33,2.825,7.064,8.638,10.962a16.191,16.191,0,0,0,7,2.536C912.283,795.1,912.8,795.151,913.3,795.178Z" transform="translate(-109.686 -88.253)" fill="#d4998a"/>
      <path id="Path_985" data-name="Path 985" d="M873.072,790.652A3.881,3.881,0,0,1,874,792.21c-.246.624-.461,1.234-.661,1.8-.592,1.677-1.031,2.946-1.651,2.881h0a32.924,32.924,0,0,1,.58-3.825q.24-1.147.577-2.323c.02-.081.045-.162.071-.246.045-.157.092-.313.141-.472.289-.934.6-1.94.968-2.983.24-.679.5-1.373.8-2.074a3.834,3.834,0,0,1,.588,1.645,3.746,3.746,0,0,1,.026.454A3.9,3.9,0,0,1,873.072,790.652Z" transform="translate(-109.872 -90.763)" fill="#263238"/>
      <path id="Path_986" data-name="Path 986" d="M883.182,776.722a3.939,3.939,0,0,1-.441-.069c.069-.112.142-.221.215-.334A3.8,3.8,0,0,1,883.182,776.722Z" transform="translate(-115.952 -86.007)" fill="#263238"/>
      <path id="Path_987" data-name="Path 987" d="M899.4,759.376a3.539,3.539,0,0,1,.25.486,19.353,19.353,0,0,0-2.291,1.1,3.641,3.641,0,0,1-.2-.844C897.9,759.841,898.651,759.6,899.4,759.376Z" transform="translate(-123.88 -76.691)" fill="#263238"/>
      <path id="Path_988" data-name="Path 988" d="M916.564,756.258c0,.065,0,.13,0,.195a19.722,19.722,0,0,0-2.037-.179,20.8,20.8,0,0,0-3.363.146,20.284,20.284,0,0,0-2.353.437,3.331,3.331,0,0,1-.038-.352c.764-.165,1.525-.307,2.273-.427,1.212-.2,2.391-.339,3.512-.431.671-.057,1.32-.1,1.942-.116A3.722,3.722,0,0,1,916.564,756.258Z" transform="translate(-130.262 -74.578)" fill="#263238"/>
      <path id="Path_989" data-name="Path 989" d="M966.062,800.816a3.928,3.928,0,0,1-1.167-.352,3.766,3.766,0,0,1,1.031-.331C965.975,800.358,966.02,800.586,966.062,800.816Z" transform="translate(-161.122 -99.101)" fill="#263238"/>
      <ellipse id="Ellipse_160" data-name="Ellipse 160" cx="2.865" cy="4.671" rx="2.865" ry="4.671" transform="translate(756.455 710.386) rotate(-14.492)" fill="#d4998a"/>
      <path id="Path_990" data-name="Path 990" d="M966.6,821.907c-.38,2.552-1.958,4.428-3.524,4.195a2.055,2.055,0,0,1-1.269-.763,5.582,5.582,0,0,1-.872-4.28,6.279,6.279,0,0,1,1.45-3.294v0a3.515,3.515,0,0,1,.508-.453l0,0a2.688,2.688,0,0,1,.614-.338h0a1.893,1.893,0,0,1,.948-.108,1.723,1.723,0,0,1,.508.158h0C966.224,817.617,966.94,819.646,966.6,821.907Z" transform="translate(-158.899 -108.288)" fill="#d4998a"/>
      <path id="Path_991" data-name="Path 991" d="M877.675,913.346" transform="translate(-113.167 -161.348)" fill="#d4998a"/>
      <path id="Path_992" data-name="Path 992" d="M894.729,887.259c2.542,4.168,8.621,5.088,13.592,2.056" transform="translate(-122.544 -147.004)" fill="#bb867d"/>
      <path id="Path_993" data-name="Path 993" d="M864.069,822.519c-.388,3.493,1.062,6.514,3.241,6.756" transform="translate(-105.652 -111.409)" fill="none" stroke="#ba867d" stroke-miterlimit="10" stroke-width="1.128"/>
      <path id="Path_994" data-name="Path 994" d="M968.081,819.521c.88,3.4.044,6.556-1.869,7.05" transform="translate(-161.846 -109.761)" fill="none" stroke="#ba867d" stroke-miterlimit="10" stroke-width="1.071"/>
      <path id="Path_995" data-name="Path 995" d="M933.312,811.888c.243.138.5.334.518.612.019.326-.324.575-.65.593a2.582,2.582,0,0,1-.947-.226c-1.688-.57-3.764.21-5.327-.512C927.44,810.2,931.994,811.137,933.312,811.888Z" transform="translate(-140.235 -105.09)" fill="#263238"/>
      <path id="Path_996" data-name="Path 996" d="M897.37,812.431a1.255,1.255,0,0,1,.542.592.529.529,0,0,1-.278.677.808.808,0,0,1-.411-.023,15.271,15.271,0,0,0-5.273-.255c-.306.039.542-.98.616-1.044a3.457,3.457,0,0,1,1.486-.569A4.539,4.539,0,0,1,897.37,812.431Z" transform="translate(-120.979 -105.474)" fill="#263238"/>
      <g id="Group_529" data-name="Group 529" transform="translate(786.516 712.654)">
        <path id="Path_997" data-name="Path 997" d="M932.262,829.024a3.422,3.422,0,0,0-4.28-.141l-1.42-1.756a5.707,5.707,0,0,1,7.234.237Z" transform="translate(-926.562 -825.948)" fill="#263238"/>
      </g>
      <g id="Group_530" data-name="Group 530" transform="translate(770.932 713.013)">
        <path id="Path_998" data-name="Path 998" d="M896.865,829.592a3.5,3.5,0,0,0-3.725-.106l-1.194-1.919a5.78,5.78,0,0,1,6.217.176Z" transform="translate(-891.945 -826.746)" fill="#263238"/>
      </g>
      <g id="Group_531" data-name="Group 531" transform="translate(780.339 716.516)">
        <path id="Path_999" data-name="Path 999" d="M916.809,843.813a4.96,4.96,0,0,1-2.336.732c-.837-.024-1.8-.448-1.608-2.327l.714-7.162,2.434-.529-.714,7.162c-.074.743.115.883.115.884.083-.024.482-.239.612-.308Z" transform="translate(-912.841 -834.527)" fill="#bb867d"/>
      </g>
      <g id="Group_532" data-name="Group 532" transform="translate(780.81 731.083)">
        <path id="Path_1000" data-name="Path 1000" d="M922.05,868.851l-1.687,1.5a3.978,3.978,0,0,0-5.121-.512l-1.356-1.805A6.254,6.254,0,0,1,922.05,868.851Z" transform="translate(-913.886 -866.886)" fill="#263238"/>
      </g>
      <circle id="Ellipse_161" data-name="Ellipse 161" cx="6.322" cy="6.322" r="6.322" transform="translate(784.307 707.869)" fill="none" stroke="#747777" stroke-miterlimit="10" stroke-width="1.626"/>
      <circle id="Ellipse_162" data-name="Ellipse 162" cx="6.322" cy="6.322" r="6.322" transform="translate(767.612 708.166)" fill="none" stroke="#747777" stroke-miterlimit="10" stroke-width="1.626"/>
      <line id="Line_224" data-name="Line 224" x2="5.953" y2="4.728" transform="translate(761.658 709.761)" fill="none" stroke="#747777" stroke-miterlimit="10" stroke-width="1.626"/>
      <line id="Line_225" data-name="Line 225" y1="4.798" x2="7.847" transform="translate(796.518 708.794)" fill="none" stroke="#747777" stroke-miterlimit="10" stroke-width="1.626"/>
      <path id="Path_1001" data-name="Path 1001" d="M912.919,831.073a3.6,3.6,0,0,1,1.574-.55,3.916,3.916,0,0,1,2.359.5" transform="translate(-132.545 -115.797)" fill="none" stroke="#747777" stroke-miterlimit="10" stroke-width="1.444"/>
      <path id="Path_1002" data-name="Path 1002" d="M889.79,916.085c3.478,4.856,3.546,8.036,6.566,27.772,1.981,12.945,2.532,15.37.527,17.834-4.255,5.226-15.568,5.156-19.178.421-1.387-1.819-1.011-6.385-.2-15.444.461-5.171,1.056-9.736,1.077-9.733a85.779,85.779,0,0,0-1.077,9.733,160.882,160.882,0,0,0,1.111,25.316c3.353,27.77,4.924,29.413,2.581,32.719-5.368,7.575-19.337,7.023-28.544,6.658-14.628-.579-17.834-5.513-28.992-3.029-8.229,1.832-13.875,6.16-16.215,3.832-1.634-1.625-.311-5.156.67-8.615.423-1.493.993-9.786,2.131-26.373,1.53-22.286-2.063-39.952-1.673-39.99.092-.01.2.979,1.765,14,1.091,9.1,1.25,10.4.36,11.717-3.491,5.172-17.013,1.566-20.506.569-.412-18.365,1.354-32.274,3.184-38.635.953-3.312,2.643-8.912,7.723-13.11.192-.158.394-.319.636-.488,4.957-3.468,9.388-4.123,15.558-5.31,11.089-2.133,12.292-3.505,14.469-2.066,2.359,1.559,1.531,3.556,5.005,7.433,1.722,1.921,4.063,4.533,7.634,5.05,4.755.689,8.672-2.773,9.557-3.555a27.655,27.655,0,0,0,5.654-7.938,93.334,93.334,0,0,1,10.332.286,33.18,33.18,0,0,1,8.934,1.833C884.844,909.3,888.228,913.9,889.79,916.085Z" transform="translate(-65.033 -155.806)" fill="#ee6973"/>
      <ellipse id="Ellipse_163" data-name="Ellipse 163" cx="19.231" cy="34.024" rx="19.231" ry="34.024" transform="translate(675.506 872.117) rotate(-7.945)" fill="#6a7a82"/>
      <ellipse id="Ellipse_164" data-name="Ellipse 164" cx="19.231" cy="34.024" rx="19.231" ry="34.024" transform="translate(671.851 875.861) rotate(-7.945)" fill="#7596a9"/>
      <ellipse id="Ellipse_165" data-name="Ellipse 165" cx="34.024" cy="19.629" rx="34.024" ry="19.629" transform="translate(828.329 933.827) rotate(-75.601)" fill="#6a7a82"/>
      <ellipse id="Ellipse_166" data-name="Ellipse 166" cx="34.024" cy="19.629" rx="34.024" ry="19.629" transform="translate(832.099 936.122) rotate(-75.601)" fill="#7596a9"/>
      <path id="Path_1003" data-name="Path 1003" d="M978.3,982.851l-3,36.024c.4-7.079.619-14.422.623-22.013a397.888,397.888,0,0,0-4.785-61.637Q974.722,959.038,978.3,982.851Z" transform="translate(-164.557 -173.377)" fill="#577070"/>
      <path id="Path_1004" data-name="Path 1004" d="M836,1018.724l6.963,9.853a46.96,46.96,0,0,1-3.188-6.166,39.6,39.6,0,0,1-3.165-18.047Q836.307,1011.544,836,1018.724Z" transform="translate(-90.254 -211.391)" fill="#577070"/>
      <path id="Path_1005" data-name="Path 1005" d="M1160.879,891.31" transform="translate(-268.879 -149.232)" fill="#263238"/>
      <path id="Path_1006" data-name="Path 1006" d="M878.26,786.614a3.812,3.812,0,0,1-1.387.429c.24-.679.5-1.373.8-2.074A3.835,3.835,0,0,1,878.26,786.614Z" transform="translate(-112.726 -90.763)" fill="#263238"/>
      <path id="Path_1007" data-name="Path 1007" d="M867.293,781.418a3.861,3.861,0,0,1,1.72-.452,14.067,14.067,0,0,0-.992,2.3A3.865,3.865,0,0,1,867.293,781.418Z" transform="translate(-107.459 -88.563)" fill="#263238"/>
      <path id="Path_1008" data-name="Path 1008" d="M877.168,772.4l-.25.244a3.464,3.464,0,0,1-.167-.307A4,4,0,0,1,877.168,772.4Z" transform="translate(-112.659 -83.817)" fill="#263238"/>
      <path id="Path_1009" data-name="Path 1009" d="M883.182,776.722a3.939,3.939,0,0,1-.441-.069c.069-.112.142-.221.215-.334A3.8,3.8,0,0,1,883.182,776.722Z" transform="translate(-115.952 -86.007)" fill="#263238"/>
      <path id="Path_1010" data-name="Path 1010" d="M877.168,772.4l-.25.244a3.464,3.464,0,0,1-.167-.307A4,4,0,0,1,877.168,772.4Z" transform="translate(-112.659 -83.817)" fill="#263238"/>
      <path id="Path_1011" data-name="Path 1011" d="M883.182,776.722a3.939,3.939,0,0,1-.441-.069c.069-.112.142-.221.215-.334A3.8,3.8,0,0,1,883.182,776.722Z" transform="translate(-115.952 -86.007)" fill="#263238"/>
      <path id="Path_1012" data-name="Path 1012" d="M899.654,759.862a19.353,19.353,0,0,0-2.291,1.1,3.641,3.641,0,0,1-.2-.844c.74-.273,1.492-.517,2.245-.738A3.539,3.539,0,0,1,899.654,759.862Z" transform="translate(-123.88 -76.691)" fill="#263238"/>
      <path id="Path_1013" data-name="Path 1013" d="M910.557,771.924a3.9,3.9,0,0,0,.392-6.806,4.031,4.031,0,0,0,.047-.61,3.9,3.9,0,0,0-3.9-3.9c-.075,0-.15,0-.224.006a3.846,3.846,0,0,0,.279-1.446,3.9,3.9,0,0,0-3.9-3.9h-.031a3.642,3.642,0,0,0,.031-.478,3.9,3.9,0,0,0-3.9-3.9c-.067,0-.134,0-.2,0a3.9,3.9,0,0,0-3.7-2.664,3.891,3.891,0,0,1-3.9,0,3.884,3.884,0,0,0-2.932,1.33,3.868,3.868,0,0,1,1,1.96,3.729,3.729,0,0,1,.069.726c0,.065,0,.13,0,.2a19.653,19.653,0,0,0-2.037-.179,20.814,20.814,0,0,0-3.363.146,20.239,20.239,0,0,0-2.353.437,3.319,3.319,0,0,1-.038-.352c.764-.165,1.525-.307,2.273-.427,1.212-.2,2.391-.339,3.512-.431a3.86,3.86,0,0,1,.937-2.076,11.5,11.5,0,0,1-8.078.035,3.9,3.9,0,0,1-4.964,1.773,3.9,3.9,0,0,1-4.573,2.129,3.9,3.9,0,0,0-3.52,5.588,4.009,4.009,0,0,1,.417.063l-.25.244a3.483,3.483,0,0,1-.167-.307c-.126-.012-.252-.018-.382-.018a3.9,3.9,0,0,0-3.9,3.9,3.645,3.645,0,0,0,.027.453,3.859,3.859,0,0,1,1.72-.451,14.061,14.061,0,0,0-.992,2.3,3.865,3.865,0,0,1-.728-1.853,12.5,12.5,0,0,1-3.339,9.748,3.9,3.9,0,0,1,0,3.054,3.9,3.9,0,0,0,3.9,3.9,3.854,3.854,0,0,0,1.26-.21c0-1.021.045-2.054.141-3.1,0-.039.006-.077.012-.118a32.939,32.939,0,0,1,.58-3.825q.24-1.147.577-2.322c.02-.081.045-.162.071-.246.045-.157.092-.313.141-.472.289-.934.6-1.94.968-2.983.24-.679.5-1.373.8-2.074a3.833,3.833,0,0,1,.588,1.645,3.745,3.745,0,0,1,.026.454,2.968,2.968,0,0,0-1.436,5.142c.891-2.245,2.176-4.64,4.455-5.531,3.406-1.332,7.744,1.193,11.542,4.343-2.842-5.834-3.324-7.79-2.881-8.073,1.069-.679,7.438,8.4,9.191,7.41,1.251-.71-.738-6.029,0-6.312.856-.33,2.825,7.064,8.638,10.962a16.191,16.191,0,0,0,7,2.536c.527.069,1.043.116,1.544.142-.02.433-.041.88-.065,1.344a3.836,3.836,0,0,0,1.062.412h0a1.893,1.893,0,0,1,.948-.108,1.724,1.724,0,0,1,.508.158h0a3.9,3.9,0,0,0,1.106-7.369Zm-40.388-10.718c.069-.112.142-.221.215-.334a3.832,3.832,0,0,1,.226.4A3.938,3.938,0,0,1,870.169,761.205Zm6.694-6.379a3.641,3.641,0,0,1-.2-.844c.74-.273,1.492-.517,2.245-.738a3.528,3.528,0,0,1,.25.486A19.348,19.348,0,0,0,876.863,754.826Zm30.29,17.1a3.771,3.771,0,0,1,1.031-.331c.049.226.094.453.136.683A3.926,3.926,0,0,1,907.153,771.924Z" transform="translate(-103.381 -70.56)" fill="#263238"/>
      <path id="Path_1014" data-name="Path 1014" d="M899.4,759.376a3.539,3.539,0,0,1,.25.486,19.353,19.353,0,0,0-2.291,1.1,3.641,3.641,0,0,1-.2-.844C897.9,759.841,898.651,759.6,899.4,759.376Z" transform="translate(-123.88 -76.691)" fill="#263238"/>
      <path id="Path_1015" data-name="Path 1015" d="M911.159,757.089a20.219,20.219,0,0,0-2.353.437,3.335,3.335,0,0,1-.038-.352c.764-.165,1.525-.307,2.273-.427A2.951,2.951,0,0,1,911.159,757.089Z" transform="translate(-130.262 -75.246)" fill="#263238"/>
      <path id="Path_1016" data-name="Path 1016" d="M916.564,753.864c0,.065,0,.13,0,.195a19.689,19.689,0,0,0-2.037-.179,20.8,20.8,0,0,0-3.363.146,20.258,20.258,0,0,0-2.353.437,3.333,3.333,0,0,1-.038-.352c.764-.165,1.525-.307,2.273-.427,1.212-.2,2.391-.339,3.512-.431a1.244,1.244,0,1,1,1.942-.116A3.722,3.722,0,0,1,916.564,753.864Z" transform="translate(-130.262 -72.184)" fill="#263238"/>
      <path id="Path_1017" data-name="Path 1017" d="M923.589,753.864c0,.065,0,.13,0,.195a19.69,19.69,0,0,0-2.038-.179c0-.043,0-.087,0-.13a3.673,3.673,0,0,1,.032-.5,1.244,1.244,0,1,1,1.942-.116A3.727,3.727,0,0,1,923.589,753.864Z" transform="translate(-137.288 -72.184)" fill="#263238"/>
      <path id="Path_1018" data-name="Path 1018" d="M966.062,800.816a3.928,3.928,0,0,1-1.167-.352,3.766,3.766,0,0,1,1.031-.331C965.975,800.358,966.02,800.586,966.062,800.816Z" transform="translate(-161.122 -99.101)" fill="#263238"/>
      <path id="Path_1019" data-name="Path 1019" d="M962.658,813.049c-.02.433-.041.881-.065,1.344a3.909,3.909,0,0,1-1.478-1.486C961.641,812.976,962.157,813.023,962.658,813.049Z" transform="translate(-159.044 -106.124)" fill="#263238"/>
      <path id="Path_1020" data-name="Path 1020" d="M966.062,800.816a3.928,3.928,0,0,1-1.167-.352,3.766,3.766,0,0,1,1.031-.331C965.975,800.358,966.02,800.586,966.062,800.816Z" transform="translate(-161.122 -99.101)" fill="#263238"/>
      <path id="Path_1021" data-name="Path 1021" d="M968.217,817.021a4.034,4.034,0,0,1-.594.045,3.876,3.876,0,0,1-.862-.1,1.893,1.893,0,0,1,.948-.108A1.722,1.722,0,0,1,968.217,817.021Z" transform="translate(-162.148 -108.288)" fill="#263238"/>
      <path id="Path_1022" data-name="Path 1022" d="M869.013,780.967a14.067,14.067,0,0,0-.992,2.3,1.263,1.263,0,1,1,.992-2.3Z" transform="translate(-107.459 -88.563)" fill="#263238"/>
      <path id="Path_1023" data-name="Path 1023" d="M876.846,787.068a3.9,3.9,0,0,1-2.361,3.585c-.075.035-.153.063-.232.091.02-.081.045-.162.071-.246.045-.157.092-.313.14-.472.289-.934.6-1.94.968-2.983.24-.679.5-1.373.8-2.074a3.837,3.837,0,0,1,.588,1.645A3.758,3.758,0,0,1,876.846,787.068Z" transform="translate(-111.285 -90.763)" fill="#263238"/>
      <path id="Path_1024" data-name="Path 1024" d="M874.157,800.12a3.861,3.861,0,0,1-.311,1.527,3.9,3.9,0,0,1-2.19,2.115c0-.039.006-.077.012-.118a32.922,32.922,0,0,1,.58-3.825q.241-1.147.577-2.323c.02-.081.045-.163.071-.246a1.9,1.9,0,0,1,.161.154,3.893,3.893,0,0,1,1.1,2.715Z" transform="translate(-109.857 -97.516)" fill="#263238"/>
      <path id="Path_1025" data-name="Path 1025" d="M873.986,806.311A3.9,3.9,0,0,1,871.344,810c0-1.021.045-2.054.14-3.1,0-.039.006-.077.012-.118a32.911,32.911,0,0,1,.58-3.825,3.876,3.876,0,0,1,1.073.944,3.746,3.746,0,0,1,.525.884A3.863,3.863,0,0,1,873.986,806.311Z" transform="translate(-109.686 -100.653)" fill="#263238"/>
      <g id="Group_538" data-name="Group 538" transform="translate(715.662 624.449)">
        <g id="Group_533" data-name="Group 533" transform="matrix(0.875, -0.485, 0.485, 0.875, -6.512, 117.699)">
          <path id="Path_1026" data-name="Path 1026" d="M774.716,792.8a10.054,10.054,0,0,0,7.247-6.256c1.032-2.638,2.888-3.831,4.984-3.429,2.034.391,3.811,2.865,3.749,5.332a5.937,5.937,0,0,1-2.641,5.15,1.505,1.505,0,0,0-.666,2.1,1.324,1.324,0,0,0,2.025.42c3.016-1.7,4.674-5.774,3.9-9.643-.741-3.691-3.676-6.441-6.992-6.34-2.854.087-5.338,1.318-6.443,4.27a8.19,8.19,0,0,1-6.468,5.721,1.46,1.46,0,0,0-1.257,1.794,1.294,1.294,0,0,0,1.76,1.07C774.181,792.94,774.448,792.869,774.716,792.8Z" transform="translate(-766.693 -780.14)" fill="#606060"/>
          <path id="Path_1027" data-name="Path 1027" d="M759.507,803.949a2.084,2.084,0,0,0-1.467,2.354,1.794,1.794,0,0,0,2.258,1.455,2.1,2.1,0,0,0,1.4-2.4A1.78,1.78,0,0,0,759.507,803.949Z" transform="translate(-758.01 -793.199)" fill="#606060"/>
        </g>
        <g id="Group_534" data-name="Group 534" transform="matrix(0.259, -0.966, 0.966, 0.259, 7.418, 80.364)">
          <path id="Path_1028" data-name="Path 1028" d="M802.037,677.459c1.813,2.547,4.037,4.185,7.068,4.312A4.158,4.158,0,0,1,813.33,685a4.36,4.36,0,0,1-2.577,4.774,4.5,4.5,0,0,1-4.664-.72c-.638-.505-1.317-.593-1.762.057a1.332,1.332,0,0,0,.4,1.849,6.759,6.759,0,0,0,8.368.456,6.507,6.507,0,0,0,2.183-7.834c-1.055-2.4-2.813-4.153-5.344-4.217a7.263,7.263,0,0,1-6.408-3.808,1.179,1.179,0,0,0-1.741-.538c-.632.424-.625,1.1-.168,1.816C801.753,677.044,801.9,677.25,802.037,677.459Z" transform="translate(-798.307 -670.552)" fill="#606060"/>
          <path id="Path_1029" data-name="Path 1029" d="M795.713,663.556a1.646,1.646,0,0,0-2.222-.55,1.664,1.664,0,0,0-.274,2.354,1.636,1.636,0,0,0,2.233.477A1.654,1.654,0,0,0,795.713,663.556Z" transform="translate(-792.857 -662.772)" fill="#606060"/>
        </g>
        <g id="Group_535" data-name="Group 535" transform="matrix(0.391, -0.921, 0.921, 0.391, 48.515, 38.364)">
          <path id="Path_1030" data-name="Path 1030" d="M895.717,636.014c-.488,3.1-.043,5.83,2.039,8.047a4.169,4.169,0,0,1,.764,5.274,4.371,4.371,0,0,1-5.195,1.613,4.514,4.514,0,0,1-2.837-3.787c-.1-.81-.528-1.349-1.3-1.195-.742.147-1.063.748-1.011,1.6a6.777,6.777,0,0,0,5.676,6.2,6.523,6.523,0,0,0,7.059-4.081c.931-2.462.9-4.949-.87-6.77a7.282,7.282,0,0,1-1.92-7.224c.185-.819-.118-1.467-.871-1.606s-1.222.353-1.394,1.183C895.8,635.517,895.763,635.766,895.717,636.014Z" transform="translate(-888.17 -629.038)" fill="#606060"/>
          <path id="Path_1031" data-name="Path 1031" d="M914.208,621.868A1.65,1.65,0,0,0,913,619.915a1.669,1.669,0,0,0-1.848,1.495,1.64,1.64,0,0,0,1.265,1.907A1.658,1.658,0,0,0,914.208,621.868Z" transform="translate(-902.991 -619.892)" fill="#606060"/>
        </g>
        <g id="Group_536" data-name="Group 536" transform="translate(113.49 42.111) rotate(31)">
          <path id="Path_1032" data-name="Path 1032" d="M997.812,682.6c-1.968,2.614-2.9,5.353-2.067,8.417a4.353,4.353,0,0,1-1.882,5.236,4.564,4.564,0,0,1-5.579-1.061,4.712,4.712,0,0,1-.757-4.881c.3-.8.174-1.5-.615-1.74-.756-.228-1.347.169-1.719.982a7.075,7.075,0,0,0,2.193,8.494,6.81,6.81,0,0,0,8.507-.3c2.065-1.813,3.255-4.121,2.518-6.667a7.6,7.6,0,0,1,1.772-7.6,1.235,1.235,0,0,0-.014-1.908c-.623-.5-1.3-.274-1.865.408C998.136,682.18,997.976,682.389,997.812,682.6Z" transform="translate(-984.584 -677.078)" fill="#606060"/>
          <path id="Path_1033" data-name="Path 1033" d="M1031.036,672.6a1.723,1.723,0,0,0-.154-2.391,1.742,1.742,0,0,0-2.436.472,1.712,1.712,0,0,0,.231,2.379A1.731,1.731,0,0,0,1031.036,672.6Z" transform="translate(-1011.975 -669.896)" fill="#606060"/>
        </g>
        <g id="Group_537" data-name="Group 537" transform="matrix(0.766, 0.643, -0.643, 0.766, 115.516, 98.045)">
          <path id="Path_1034" data-name="Path 1034" d="M1016.267,800.009c-3.509-.1-6.483.786-8.647,3.416a4.669,4.669,0,0,1-5.75,1.6,4.9,4.9,0,0,1-2.536-5.54,5.055,5.055,0,0,1,3.8-3.693c.885-.23,1.423-.78,1.141-1.618-.27-.8-.983-1.074-1.926-.894a7.59,7.59,0,0,0-6.072,7.191,7.307,7.307,0,0,0,5.544,7.258c2.868.681,5.626.29,7.4-1.936a8.156,8.156,0,0,1,7.749-3.166c.936.088,1.613-.341,1.66-1.2s-.567-1.307-1.514-1.379C1016.832,800.034,1016.549,800.024,1016.267,800.009Z" transform="translate(-996.276 -793.231)" fill="#606060"/>
          <path id="Path_1035" data-name="Path 1035" d="M1059.084,813.507a1.848,1.848,0,0,0,2-1.619,1.868,1.868,0,0,0-1.925-1.839,1.836,1.836,0,0,0-1.938,1.678A1.856,1.856,0,0,0,1059.084,813.507Z" transform="translate(-1033.013 -803.37)" fill="#606060"/>
        </g>
      </g>
    </g>
    <text id="Earn_additional_Income_" data-name="Earn additional
Income?" transform="translate(-5927 -5059)" fill="#393939" font-size="11.5" font-family="Montserrat-Bold, Montserrat" font-weight="700"><tspan x="-45.96" y="0">Earn additional</tspan><tspan x="-25.846" y="14">Income?</tspan></text>
    <text id="Financial_Security_" data-name="Financial Security?" transform="translate(-6145 -5154)" font-size="11.5" font-family="Montserrat-Bold, Montserrat" font-weight="700"><tspan x="-57.218" y="0">Financial Security?</tspan></text>
    <text id="Retire_Early_" data-name="Retire Early?" transform="translate(-6186 -5040)" fill="#393939" font-size="11.5" font-family="Montserrat-Bold, Montserrat" font-weight="700"><tspan x="-38.37" y="0">Retire Early?</tspan></text>
    <text id="Be_debt_free_" data-name="Be debt free?" transform="translate(-6171 -5094)" fill="#393939" font-size="11.5" font-family="Montserrat-Bold, Montserrat" font-weight="700"><tspan x="-40.86" y="0">Be debt free?</tspan></text>
  </g>
</svg>
