<svg id="Group_688" data-name="Group 688" xmlns="http://www.w3.org/2000/svg" width="211.543" height="157.067" viewBox="0 0 211.543 157.067">
  <path id="Path_133" data-name="Path 133" d="M255.265,407.757a103.458,103.458,0,0,0,4.834,28.6c.065.215.138.427.208.641h18.036c-.019-.193-.039-.408-.057-.641-1.2-13.825,5.668-96.967,13.958-111.357C291.517,326.167,253.867,363.828,255.265,407.757Z" transform="translate(-242.501 -280.201)" fill="#af827b"/>
  <path id="Path_134" data-name="Path 134" d="M222.188,572.507c.151.215.308.43.468.641h13.531c-.1-.183-.221-.4-.359-.641-2.235-4.034-8.851-16.1-14.992-28.6-6.6-13.437-12.655-27.384-12.145-32.432C208.533,512.613,203.966,547.319,222.188,572.507Z" transform="translate(-208.07 -416.351)" fill="#af827b"/>
  <path id="Path_1165" data-name="Path 1165" d="M421.726,551.2a3.126,3.126,0,0,0-.09.484l-13.029,6.843-3.025-1.905-3.472,4.19,5.028,3.893a2.374,2.374,0,0,0,2.849.044l13.546-9.841a3.115,3.115,0,1,0-1.806-3.707Z" transform="translate(-349.743 -443.685)" fill="#9e616a"/>
  <path id="Path_1166" data-name="Path 1166" d="M307.406,536.213l2.613-1.68-5.237-10.876-3.856,2.48Z" transform="translate(-219.714 -382.335)" fill="#9e616a"/>
  <path id="Path_1167" data-name="Path 1167" d="M528.506,716.981l5.145-3.309h0a3.9,3.9,0,0,1,5.387,1.17l.068.106-8.423,5.417Z" transform="translate(-442.029 -563.528)" fill="#2f2e41"/>
  <path id="Path_1168" data-name="Path 1168" d="M352.866,625.2l20.054-12.839s3.685-.356,5.9,4l13.356,19.185-5.7,3.856-14.82-15.389-10.17,10.058s14.983-2.457,14.477,7.424c-.4,7.841-20.909,5.152-29.357,3.707a11.078,11.078,0,0,1-7.763-5.314,5.472,5.472,0,0,1-.632-5.043C340.237,630.353,352.866,625.2,352.866,625.2Z" transform="translate(-302.812 -490.008)" fill="#2f2e41"/>
  <path id="Path_1169" data-name="Path 1169" d="M341.068,595.676l-5.779-1.17,1.647-28.364,6.65-8.145,3.962-.7a4.787,4.787,0,0,1,5.476,3.465l1.746,6.379c2.963,5.017-1.188,10.833-1.571,11.35l.216,8.8Z" transform="translate(-300.956 -449.749)" fill="#ff735d"/>
  <path id="Path_1170" data-name="Path 1170" d="M376.642,559.206l.367-1.3s3.979-2.933,10.06,4.668l-2.914,5.194-6.334-.253Z" transform="translate(-331.149 -449.848)" fill="#ff735d"/>
  <path id="Path_1171" data-name="Path 1171" d="M357.495,497.671c1.127,4.621-3.316,4.965-8.587,6.25s-9.374,3.027-10.5-1.594-1.038-13.322,6.419-15.141C352.539,485.3,356.368,493.05,357.495,497.671Z" transform="translate(-302.848 -398.406)" fill="#2f2e41"/>
  <circle id="Ellipse_184" data-name="Ellipse 184" cx="6.611" cy="6.611" r="6.611" transform="translate(37.848 92.482)" fill="#9e616a"/>
  <path id="Path_1172" data-name="Path 1172" d="M344.2,506.268h0l2.54-.62.355-3.411.99,3.083,1.214-.3.207-1.99.577,1.8,9.021-2.2h0a7,7,0,0,0-8.457-5.14l-1.307.319a7,7,0,0,0-5.14,8.457Z" transform="translate(-307.316 -405.995)" fill="#2f2e41"/>
  <path id="Path_1173" data-name="Path 1173" d="M363.4,614.109a3.118,3.118,0,0,0-.465.161l-12.4-7.923.155-3.572-5.36-.938-.889,6.3a2.374,2.374,0,0,0,1.374,2.5l15.262,6.886a3.115,3.115,0,1,0,2.324-3.406Z" transform="translate(-307.62 -482.327)" fill="#9e616a"/>
  <path id="Path_1174" data-name="Path 1174" d="M349.053,561.373l-.935-1.178s-3.753-1.209-5.78,3.858a15.025,15.025,0,0,0-.127,10.007l8.867.76.633-8.234Z" transform="translate(-305.42 -451.831)" fill="#ff735d"/>
  <path id="Path_1175" data-name="Path 1175" d="M527.283,130.684h69.244v22.732H593.9v5.945l-5.945-5.945H527.283Z" transform="translate(-384.983 -95.416)" fill="#e6e6e6"/>
  <rect id="Rectangle_679" data-name="Rectangle 679" width="65.397" height="18.185" transform="translate(144.223 37.482)" fill="#fff"/>
  <rect id="Rectangle_680" data-name="Rectangle 680" width="31.487" height="0.956" transform="translate(149.482 42.791)" fill="#ff735d"/>
  <rect id="Rectangle_681" data-name="Rectangle 681" width="54.879" height="0.956" transform="translate(149.482 46.097)" fill="#e6e6e6"/>
  <rect id="Rectangle_682" data-name="Rectangle 682" width="54.825" height="0.956" transform="translate(149.482 49.402)" fill="#e6e6e6"/>
  <path id="Path_1176" data-name="Path 1176" d="M443.172,0H373.928V22.732h2.623v5.945l5.945-5.945h60.676Z" transform="translate(-273.015)" fill="#e6e6e6"/>
  <rect id="Rectangle_683" data-name="Rectangle 683" width="65.397" height="18.185" transform="translate(102.837 2.214)" fill="#fff"/>
  <rect id="Rectangle_684" data-name="Rectangle 684" width="31.487" height="0.956" transform="translate(108.62 7.698)" fill="#ff735d"/>
  <rect id="Rectangle_685" data-name="Rectangle 685" width="54.879" height="0.956" transform="translate(108.62 11.003)" fill="#e6e6e6"/>
  <rect id="Rectangle_686" data-name="Rectangle 686" width="54.825" height="0.956" transform="translate(108.62 14.309)" fill="#e6e6e6"/>
  <path id="Path_1177" data-name="Path 1177" d="M490.838,524.3h-.123v-3.358A1.944,1.944,0,0,0,488.772,519h-7.114a1.944,1.944,0,0,0-1.944,1.944v18.423a1.944,1.944,0,0,0,1.944,1.944h7.115a1.944,1.944,0,0,0,1.944-1.944V526.692h.123Z" transform="translate(-406.404 -421.845)" fill="#3f3d56"/>
  <path id="Path_1178" data-name="Path 1178" d="M490.3,520.874h-.929a.69.69,0,0,1-.638.95h-4.076a.69.69,0,0,1-.638-.95h-.867a1.451,1.451,0,0,0-1.451,1.451v18.4a1.451,1.451,0,0,0,1.451,1.451H490.3a1.451,1.451,0,0,0,1.451-1.451h0v-18.4A1.451,1.451,0,0,0,490.3,520.874Z" transform="translate(-407.855 -423.214)" fill="#fff"/>
  <path id="Path_1179" data-name="Path 1179" d="M368.469,248.549H283.441v27.913h3.221v7.3l7.3-7.3h74.507Z" transform="translate(-206.948 -181.472)" fill="#fff"/>
  <path id="Path_1180" data-name="Path 1180" d="M493.732,442.684V435h-3.221V406.549h85.567V435H501.414Zm-2.681-8.222h3.221v6.919l6.919-6.919h74.349V407.089H491.051Z" transform="translate(-414.288 -339.742)" fill="#3f3d56"/>
  <rect id="Rectangle_687" data-name="Rectangle 687" width="38.664" height="1.173" transform="translate(85.957 76.53)" fill="#ff735d"/>
  <rect id="Rectangle_688" data-name="Rectangle 688" width="67.389" height="1.173" transform="translate(85.957 80.588)" fill="#e6e6e6"/>
  <rect id="Rectangle_689" data-name="Rectangle 689" width="67.323" height="1.173" transform="translate(85.957 84.648)" fill="#e6e6e6"/>
  <path id="Path_1181" data-name="Path 1181" d="M358.054,739.54H255.232a.27.27,0,1,1,0-.54H358.054a.27.27,0,1,1,0,.54Z" transform="translate(-242.307 -582.473)" fill="#3f3d56"/>
</svg>
