<svg xmlns="http://www.w3.org/2000/svg" width="109" height="178.964" viewBox="0 0 109 178.964">
  <g id="Layer_1" data-name="Layer 1" transform="translate(-147.125 -116.343)">
    <path id="Path_905" data-name="Path 905" d="M256.192,454.122" transform="translate(-76.732 -237.639)" fill="#749698"/>
    <path id="Path_906" data-name="Path 906" d="M155.512,437.258c.218.221.277.553.529.749a.785.785,0,0,1,.307.654c.021.515.024,1.029.014,1.544a2.353,2.353,0,0,1-.259,1.108,19.13,19.13,0,0,1-1.154,1.983,5.056,5.056,0,0,0-.464,1,1.708,1.708,0,0,1-.081.163c-.092.146-.143.312-.223.464-.126.24-.287.251-.467.058a1.3,1.3,0,0,1-.308-.916,4.935,4.935,0,0,1,.4-1.647c.032-.09.078-.176.114-.264.066-.179.142-.355.211-.537-.117-.027-.194.036-.281.05-.052.017-.1.033-.157.051a.634.634,0,0,0-.322.334c-.189.333-.36.677-.568,1a6.21,6.21,0,0,0-.937,2.372c-.095.557-.548.824-.959,1.093-.21.138-.486-.016-.729-.07a.7.7,0,0,1-.133-.106c-.893-.011-1.2-.489-1.336-1.351a4.682,4.682,0,0,1,.193-2.972.355.355,0,0,0,.026-.307c0-.148.2-.218.14-.4.05.244-.153.2-.263.264a3.366,3.366,0,0,0-.938,2.315c-.006.186-.052.365-.259.382s-.17-.2-.195-.323c-.1-.515-.192-1.034-.276-1.553a1.5,1.5,0,0,1,.309-1.036c.33-.538.68-1.064,1.021-1.594a.114.114,0,0,1,.054-.087,32.845,32.845,0,0,1,2.637-2.141l.372-.295c.453-.314.886-.656,1.365-.933a1.881,1.881,0,0,1,1.951-.031c.32.173.36.572.608.807A.138.138,0,0,1,155.512,437.258Z" transform="translate(0 -224.906)" fill="#b6918c"/>
    <path id="Path_907" data-name="Path 907" d="M322.036,414.053" transform="translate(-123.055 -209.449)" fill="#749698"/>
    <path id="Path_908" data-name="Path 908" d="M290,493.4c-4.273-6.722-3.27-12.681-3.672-34.848-.086-4.738-.129-7.107-.281-10.208a211.8,211.8,0,0,0-2.982-26.6,38.089,38.089,0,0,0,5.913-.385,3.282,3.282,0,0,1,.93-.092,3.671,3.671,0,0,1,1.331.342c1.49.519,4.892-6.795,6.62-6.568,1.508.2,1.88,6.15,1.937,7.14a168,168,0,0,1-1.012,30.77c-.734,5.144-1.1,7.726-1.849,11.558-1.64,8.411-4.607,20.277-3.236,24.5a42.242,42.242,0,0,0,2.026,6.779h0c.992,2.588,1.742,3.851,1.442,4.084C296.611,500.3,292.422,497.2,290,493.4Z" transform="translate(-95.639 -210.135)" fill="#455960"/>
    <path id="Path_909" data-name="Path 909" d="M229.675,482.656c-3.318-2.336-.189-9.663,1.3-20.985.663-5.041.49-13.934.144-31.72a122.018,122.018,0,0,1,.523-16.069c.451-4.4,1.076-8.01,1.557-10.457,11.979-2.393,16.1-.181,17.741,2.023,3.861,5.173-4.213,12.593-8.322,35.136-1.854,10.172-2.785,15.257-3,20.111-.017.378-.705,5.106-2.081,14.563-.495,3.4-.986,6.489-3.236,7.628A4.812,4.812,0,0,1,229.675,482.656Z" transform="translate(-57.043 -201.244)" fill="#455960"/>
    <ellipse id="Ellipse_156" data-name="Ellipse 156" cx="4.957" cy="5.967" rx="4.957" ry="5.967" transform="translate(186.036 162.398)" fill="#b6918c"/>
    <path id="Path_910" data-name="Path 910" d="M303.254,677.1c1.561,1.84,2.168,4.237.786,5.869a.959.959,0,0,1-.5.347,1.9,1.9,0,0,1-1.2-.278,159.794,159.794,0,0,1-14.613-7.757,4.013,4.013,0,0,1-1.5-1.328,2.032,2.032,0,0,1,.306-1.984,12.4,12.4,0,0,1,3.081-3.444,2.615,2.615,0,0,1,1.266-.614,3.659,3.659,0,0,1,1.933.433c2.345,1.091,3.091,2.585,4.59,4.152C299.056,674.22,301.677,675.237,303.254,677.1Z" transform="translate(-97.754 -388.031)" fill="#334144"/>
    <path id="Path_911" data-name="Path 911" d="M278.139,210.007c.459,1.242.383,2.631.23,5.41a26.136,26.136,0,0,1-1.063,6.311,8.039,8.039,0,0,1-.9,2.322c-1.935,2.547-7.357,2.859-9.916.345-.887-.872-1.168-2-1.73-4.259-.672-2.7-1.393-5.6-.346-8.978a8.248,8.248,0,0,1,3.211-4.977,7.1,7.1,0,0,1,6.45-.609A7.469,7.469,0,0,1,278.139,210.007Z" transform="translate(-82.148 -62.419)" fill="#b6918c"/>
    <path id="Path_912" data-name="Path 912" d="M293.01,273.026c.7.552,2.088-.045,3.113-1.336" transform="translate(-102.635 -109.292)" fill="#684b47"/>
    <path id="Path_913" data-name="Path 913" d="M269.262,238.938c-.141,1.275.388,2.378,1.183,2.466" transform="translate(-85.911 -86.25)" fill="none" stroke="#684c48" stroke-miterlimit="10" stroke-width="0.763"/>
    <g id="Group_507" data-name="Group 507" transform="translate(189.607 151.567)">
      <path id="Path_914" data-name="Path 914" d="M292.563,236.088a1.34,1.34,0,0,0-1.555.16l-.591-.513a2.234,2.234,0,0,1,2.628-.271Z" transform="translate(-290.417 -235.157)" fill="#263238"/>
    </g>
    <g id="Group_508" data-name="Group 508" transform="translate(194.236 150.995)">
      <path id="Path_915" data-name="Path 915" d="M307.645,234.156a.732.732,0,0,0-1.1.233l-.513-.5a1.223,1.223,0,0,1,1.856-.395Z" transform="translate(-306.033 -233.227)" fill="#263238"/>
    </g>
    <g id="Group_509" data-name="Group 509" transform="translate(193.467 152.963)">
      <path id="Path_916" data-name="Path 916" d="M303.505,243.207a.722.722,0,0,0,.548-.053c.189-.115.395-.379.3-.984L304,239.864l-.565.134.352,2.305a.572.572,0,0,1,0,.311,1,1,0,0,1-.147-.025Z" transform="translate(-303.439 -239.864)" fill="#684b47"/>
    </g>
    <g id="Group_510" data-name="Group 510" transform="translate(191.797 157.5)">
      <path id="Path_917" data-name="Path 917" d="M297.8,256.891l.189-.8a1.452,1.452,0,0,0,1.637-.921l.784.255A2.282,2.282,0,0,1,297.8,256.891Z" transform="translate(-297.804 -255.168)" fill="#263238"/>
    </g>
    <path id="Path_918" data-name="Path 918" d="M268.715,200.95a4.848,4.848,0,0,1,4.027,3.34,4.622,4.622,0,0,1,.362,1.476c-.361-.361-.562-.81-1.015-1.037a.829.829,0,0,0-.891.008c-.3.182-.613.333-.92.5a2.91,2.91,0,0,1-1.164.308c-1.1.1-1.346-.583-2.665-.675a4.112,4.112,0,0,0-1.369.145,3.167,3.167,0,0,0-2.425,3.049c-.064.721-.066,1.446-.1,2.169-.007.151-.03.3-.047.468a6.943,6.943,0,0,0-1.051-.182,1.308,1.308,0,0,0-1.279.654,2.351,2.351,0,0,0-.166,2.218,1.322,1.322,0,0,0,1.038.8c.513.075.5.275.307.661-.308.628-.566,1.278-.937,1.877-.4-.009-.586-.328-.816-.563a2.777,2.777,0,0,1-.891-1.625,9.952,9.952,0,0,1-1.919-5.84c.067-4.656,3.8-9.156,6.957-9.166C264.9,199.523,265.009,200.116,268.715,200.95Z" transform="translate(-77.154 -58.523)" fill="#263238"/>
    <path id="Path_919" data-name="Path 919" d="M215.558,186.6c-2.05,3.068-3.075,4.6-3.641,6.242,0,0-1.518,4.481-.517,14.786.039.4.185,1.808.253,3.665.084,2.278.015,3.964-.009,4.638-.282,7.7.772,8.381-.03,10.308-2.643,6.352-16.95,5.75-18.938,5.666-5.268-.222-8.049-.339-9.882-2.427-2.695-3.07-.865-7.579,2.651-22.987,2.685-11.766,3.353-16.771,3.356-16.77.141.034-.9,10.217-5.668,20.115a55.728,55.728,0,0,1-13.284,17.388q-9.539,4.137-10.865,2.312-1.752-2.414,10.865-15.257a109.23,109.23,0,0,0,11.038-22.96c3.129-9.1,7.327-9.673,8.383-9.985.238-.07,4.476-1.269,6.338.7.786.832.687,1.741,1.861,2.6a3.494,3.494,0,0,0,3.251.654,3.016,3.016,0,0,0,1.835-2.735c-.038-1.358-1.306-2.132-1.045-2.477.3-.392,2.1.426,2.774.657,1.493.511,1.567.589,1.876.665.358.088,1.949.4,5.411-2.659,2.111-1.864,4.07-3.607,5.123-6.238.849-2.122.9-4.3-.847-11.33-2.808-11.323-5.45-15.825-3.06-19.247.261-.374,1.164-1.717,2.264-1.646s2.2,1.529,5.015,12.148c2.716,10.258,1.854,9.551,3.41,13.546.95,2.439,1.608,3.567,1.492,5.542-.057.976-.329,2.614-4.314,8.23C218.145,183.281,217.5,183.693,215.558,186.6Z" transform="translate(-8.193 -16.837)" fill="#c86b72"/>
    <path id="Path_920" data-name="Path 920" d="M265.117,277.243" transform="translate(-83.011 -113.199)" fill="#749698"/>
    <path id="Path_921" data-name="Path 921" d="M331.238,126.693a5.659,5.659,0,0,1-1.174-1,2.354,2.354,0,0,1-.666-.923,19.106,19.106,0,0,1-.738-2.173,2.357,2.357,0,0,0-.452-1.009,1.924,1.924,0,0,1-.273-.641c-.033-.149-.049-.224-.007-.282.132-.181.743-.054,1.164.261a2.32,2.32,0,0,1,.6.729c.132.214.251.437.379.654.047.084.082.174.124.259.091.168.174.34.266.512a.755.755,0,0,0,.092-.121c.273-.446,0-1.073-.214-1.545-.538-1.16-.854-1.564-1.26-2.54a2.4,2.4,0,0,1-.195-1.441c.034-.249.331-.356.532-.5a.68.68,0,0,1,.167-.031c.595-.666,1.156-.583,1.9-.12a4.679,4.679,0,0,1,2.114,2.1.356.356,0,0,0,.214.221c.112.1.034.292.21.369a.8.8,0,0,1-.107-.115c-.28-.367-.021-.7-.13-1.171a3.33,3.33,0,0,0-.919-1.315c-.136-.126-.241-.279-.118-.446s.266.005.371.065c.457.259.905.535,1.352.811a1.5,1.5,0,0,1,.578.914c.189.6.356,1.211.532,1.817a.115.115,0,0,1,.03.1,32.942,32.942,0,0,1-.117,3.4q-.011.237-.022.474a7.46,7.46,0,0,1-.193,1.642C334.9,126.718,332.6,127.426,331.238,126.693Z" transform="translate(-127.183)" fill="#b6918c"/>
    <path id="Path_922" data-name="Path 922" d="M289.956,228.312a.46.46,0,0,1,.2.216.193.193,0,0,1-.1.247.294.294,0,0,1-.15-.008,5.58,5.58,0,0,0-1.925-.093c-.112.014.2-.358.225-.381a1.266,1.266,0,0,1,.543-.208A1.657,1.657,0,0,1,289.956,228.312Z" transform="translate(-99.077 -78.593)" fill="#263238"/>
    <path id="Path_923" data-name="Path 923" d="M307.133,227.114a.435.435,0,0,1,.2.165c.05.083.058.211,0,.258a.163.163,0,0,1-.109.024,3.09,3.09,0,0,0-1.394.317c-.075.037.039-.385.051-.413a.814.814,0,0,1,.326-.313A.973.973,0,0,1,307.133,227.114Z" transform="translate(-111.636 -77.862)" fill="#263238"/>
    <path id="Path_924" data-name="Path 924" d="M230.921,666.7c1.205.884-.728,9.319-5.408,9.917a5.174,5.174,0,0,1-3.93-1.387c-2.9-2.852-1.292-8.85.476-9.276,1.176-.284,1.8,2.1,4.148,2.341C228.749,668.559,230.3,666.249,230.921,666.7Z" transform="translate(-51.262 -386.656)" fill="#334144"/>
    <path id="Path_925" data-name="Path 925" d="M384.713,366.756c-.663,1.326-1.185,2.272-1.62,3.257-7.045,15.947-5.354,31.722.692,47.523,1.417,3.7,3.318,5.4,7.373,4.777,2.338-.362,4.8.119,7.161-.153a4.034,4.034,0,0,0,2.839-1.837c4.667-10.572,7.383-21.589,6.6-33.235a47.483,47.483,0,0,0-5.864-20.545A16.468,16.468,0,0,1,384.713,366.756Zm28.683,58.5c.241-3.609.036-6.591.712-9.357,1.309-5.354-2.331-7.962-5.112-11.359-1.389,4.419-2.724,8.421-3.855,12.479a3.064,3.064,0,0,0,.62,2.633C407.99,421.513,410.428,423.12,413.4,425.258Zm-40.451-.051c3.043-2.179,5.656-3.993,8.18-5.925a1.927,1.927,0,0,0,.274-1.679c-1.322-4.249-2.728-8.471-4.3-13.3-1.865,2.742-4.5,4.962-4.842,7.493C371.686,415.95,372.607,420.305,372.944,425.208Zm20.309-70.773-7.318,9.838a12,12,0,0,0,14.884-.249Z" transform="translate(-158.257 -167.506)"/>
    <path id="Path_926" data-name="Path 926" d="M426.877,608.723v10.723C425.164,618.492,424.951,611.077,426.877,608.723Z" transform="translate(-195.854 -346.406)" fill="#455960"/>
    <path id="Path_927" data-name="Path 927" d="M457.582,619.181V608.072C459.357,609.06,459.578,616.742,457.582,619.181Z" transform="translate(-218.417 -345.948)" fill="#455960"/>
    <path id="Path_928" data-name="Path 928" d="M399.942,395.489a16.468,16.468,0,0,0,17.179-.213,47.483,47.483,0,0,1,5.864,20.545c.785,11.645-1.931,22.662-6.6,33.235a4.034,4.034,0,0,1-2.839,1.837c-2.363.272-4.823-.209-7.161.153-4.055.628-5.957-1.074-7.373-4.777-6.046-15.8-7.736-31.576-.692-47.523C398.756,397.76,399.279,396.814,399.942,395.489Zm8.363,13.478a8.158,8.158,0,0,0-8.075,8.1,8.349,8.349,0,0,0,8.345,8.247,8.211,8.211,0,0,0,8.024-8.193A8.036,8.036,0,0,0,408.305,408.967Z" transform="translate(-173.486 -196.239)" fill="#934e56"/>
    <path id="Path_929" data-name="Path 929" d="M491.69,544.166c-2.967-2.138-5.406-3.746-7.635-5.6a3.065,3.065,0,0,1-.62-2.633c1.131-4.058,2.466-8.059,3.855-12.479,2.781,3.4,6.421,6,5.112,11.359C491.726,537.575,491.931,540.557,491.69,544.166Z" transform="translate(-236.552 -286.413)" fill="#934e56"/>
    <path id="Path_930" data-name="Path 930" d="M372.944,543.55c-.338-4.9-1.259-9.258-.693-13.411.345-2.531,2.978-4.751,4.842-7.493,1.576,4.828,2.982,9.051,4.3,13.3a1.927,1.927,0,0,1-.274,1.679C378.6,539.556,375.987,541.371,372.944,543.55Z" transform="translate(-158.257 -285.848)" fill="#934e56"/>
    <path id="Path_931" data-name="Path 931" d="M426.15,354.435l7.565,9.589a12,12,0,0,1-14.884.249Z" transform="translate(-191.155 -167.506)" fill="#934e56"/>
    <path id="Path_932" data-name="Path 932" d="M423.757,441.453a8.036,8.036,0,0,1,8.294,8.156,8.211,8.211,0,0,1-8.024,8.193,8.349,8.349,0,0,1-8.345-8.247A8.158,8.158,0,0,1,423.757,441.453Zm6.112,7.988a6.234,6.234,0,0,0-6.24-5.827,6.136,6.136,0,0,0-5.644,6.056,5.891,5.891,0,0,0,6.195,5.738A6.019,6.019,0,0,0,429.87,449.441Z" transform="translate(-188.938 -228.726)" fill="#455960"/>
    <path id="Path_933" data-name="Path 933" d="M435.334,454.553a6.019,6.019,0,0,1-5.69,5.967,5.891,5.891,0,0,1-6.195-5.738,6.136,6.136,0,0,1,5.644-6.056A6.234,6.234,0,0,1,435.334,454.553Z" transform="translate(-194.402 -233.837)" fill="#c1a4a8"/>
    <rect id="Rectangle_534" data-name="Rectangle 534" width="12.012" height="1.748" transform="translate(229.113 255.444)" fill="#455960"/>
    <rect id="Rectangle_535" data-name="Rectangle 535" width="10.916" height="1.61" transform="translate(235.854 262.317) rotate(90)" fill="#455960"/>
  </g>
</svg>
