<svg xmlns="http://www.w3.org/2000/svg" width="130.624" height="164.521" viewBox="0 0 130.624 164.521">
  <g id="Layer_2" data-name="Layer 2" transform="translate(-961.202 -132.773)">
    <path id="Rectangle_536" data-name="Rectangle 536" d="M4.1,0H61.533a4.1,4.1,0,0,1,4.1,4.1V35.665a4.1,4.1,0,0,1-4.1,4.1H4.1a4.1,4.1,0,0,1-4.1-4.1V4.1A4.1,4.1,0,0,1,4.1,0Z" transform="translate(961.201 135.039)" fill="#c39793" opacity="0.31"/>
    <path id="Rectangle_537" data-name="Rectangle 537" d="M4.1,0h33.35a4.1,4.1,0,0,1,4.1,4.1v51a4.1,4.1,0,0,1-4.1,4.1H4.1A4.1,4.1,0,0,1,0,55.1V4.1A4.1,4.1,0,0,1,4.1,0Z" transform="translate(1020.002 157.736)" fill="#c39793" opacity="0.15"/>
    <rect id="Rectangle_538" data-name="Rectangle 538" width="39.408" height="23.876" rx="4.096" transform="translate(986.023 193.057)" fill="#c39793" opacity="0.31"/>
    <rect id="Rectangle_539" data-name="Rectangle 539" width="51.506" height="31.205" rx="4.096" transform="translate(1040.319 165.623)" fill="#c39793" opacity="0.31"/>
    <path id="Path_934" data-name="Path 934" d="M1129.788,380.549" transform="translate(-118.269 -173.823)" fill="#749698"/>
    <path id="Path_935" data-name="Path 935" d="M1125.352,485.883c-2.144.284-4.738.682-4.72.989.021.363,3.734,1.434,6.211.247,6.074-2.909.91-17.572,5.344-40.485.42-2.17.91-4.229,1.9-8.345,2.585-10.727,5.138-19.344,6.96-25.136-2.12-2.924-4.779-5.271-7.431-5.514a3.3,3.3,0,0,0-3.15,1.29c-1.285,1.6-2.078,4.668-2.706,7.586-2.453,11.4-3.642,23.047-4.764,34.652-.68,7.034-.656,6.491-.691,7.1A84.782,84.782,0,0,0,1125.352,485.883Z" transform="translate(-111.846 -192.812)" fill="#b6918c"/>
    <path id="Path_936" data-name="Path 936" d="M1173.249,477.194c-1.927.978-4.24,2.214-4.12,2.5.141.335,4,.114,5.939-1.825,4.755-4.755-5.018-16.872-8.5-39.947-.329-2.185-.556-4.29-1-8.5-1.149-10.971-1.623-19.944-1.842-26.009-2.977-2.056-6.269-3.387-8.851-2.737a3.29,3.29,0,0,0-2.539,2.261c-.676,1.936-.4,5.09-.015,8.05,1.5,11.563,4.272,22.94,7.094,34.255,1.711,6.858,1.551,6.338,1.723,6.925A84.968,84.968,0,0,0,1173.249,477.194Z" transform="translate(-133.804 -187.825)" fill="#b6918c"/>
    <path id="Path_937" data-name="Path 937" d="M1140.574,235.574c-.444,2.448,1.872,6.384,5.328,6.384,2.942,0,5.327-2.858,5.327-6.384,0-3.564-3.268-6.743-5.327-6.384-.638.111-1.392,1.014-2.876,2.815C1141.483,233.879,1140.711,234.816,1140.574,235.574Z" transform="translate(-125.798 -67.62)" fill="#b6918c"/>
    <path id="Path_938" data-name="Path 938" d="M1097.649,660.731c-2.052.794-3.536,2.412-3.052,4.246a.858.858,0,0,0,.271.473,1.877,1.877,0,0,0,1.115.275c5.155.145,10.328.29,15.339-.067a3.808,3.808,0,0,0,1.794-.42,1.692,1.692,0,0,0,.556-1.669,10.676,10.676,0,0,0-1.158-3.939,2.406,2.406,0,0,0-.8-1,3.606,3.606,0,0,0-1.787-.453c-2.4-.109-3.63.749-5.519,1.356C1102.319,660.208,1099.722,659.928,1097.649,660.731Z" transform="translate(-93.517 -368.586)" fill="#a4c1d2"/>
    <path id="Path_939" data-name="Path 939" d="M1186.6,645.395c-1.787,1.28-2.818,3.216-1.888,4.872a.861.861,0,0,0,.381.39,1.88,1.88,0,0,0,1.149-.012c5.028-1.144,10.072-2.293,14.834-3.886a3.806,3.806,0,0,0,1.631-.854,1.69,1.69,0,0,0,.118-1.755,10.7,10.7,0,0,0-2.112-3.525,2.412,2.412,0,0,0-1.028-.763,3.607,3.607,0,0,0-1.844.007c-2.35.492-3.326,1.629-5,2.688C1190.991,643.725,1188.406,644.1,1186.6,645.395Z" transform="translate(-156.556 -355.658)" fill="#a4c1d2"/>
    <path id="Path_940" data-name="Path 940" d="M1139.674,163.737c-.493,1.329-.412,2.815-.248,5.788a27.821,27.821,0,0,0,1.143,6.752,8.573,8.573,0,0,0,.964,2.484c2.08,2.725,7.907,3.059,10.657.369.954-.933,1.255-2.141,1.859-4.556.722-2.89,1.5-5.992.372-9.606a8.817,8.817,0,0,0-3.452-5.325,7.664,7.664,0,0,0-6.932-.651A8,8,0,0,0,1139.674,163.737Z" transform="translate(-124.942 -18.013)" fill="#b6918c"/>
    <path id="Path_941" data-name="Path 941" d="M1152.911,230.685c-.748.591-2.244-.049-3.346-1.43" transform="translate(-132.144 -67.685)" fill="#684b47"/>
    <path id="Path_942" data-name="Path 942" d="M1183.082,194.448c.152,1.364-.417,2.544-1.271,2.638" transform="translate(-154.765 -43.267)" fill="none" stroke="#684c48" stroke-miterlimit="10" stroke-width="0.813"/>
    <g id="Group_511" data-name="Group 511" transform="translate(1018.769 149.982)">
      <path id="Path_943" data-name="Path 943" d="M1154.6,191.426a1.445,1.445,0,0,1,1.671.172l.636-.549a2.409,2.409,0,0,0-2.824-.29Z" transform="translate(-1154.082 -190.43)" fill="#263238"/>
    </g>
    <g id="Group_512" data-name="Group 512" transform="translate(1014.623 149.37)">
      <path id="Path_944" data-name="Path 944" d="M1140.452,189.373a.788.788,0,0,1,1.18.25l.552-.535a1.318,1.318,0,0,0-1.995-.422Z" transform="translate(-1140.189 -188.379)" fill="#263238"/>
    </g>
    <g id="Group_513" data-name="Group 513" transform="translate(1016.435 151.475)">
      <path id="Path_945" data-name="Path 945" d="M1147.2,199.009a.78.78,0,0,1-.589-.057c-.2-.123-.424-.406-.325-1.053l.378-2.467.607.143-.378,2.467a.607.607,0,0,0,0,.332,1.078,1.078,0,0,0,.158-.027Z" transform="translate(-1146.259 -195.433)" fill="#684b47"/>
    </g>
    <g id="Group_514" data-name="Group 514" transform="translate(1016.435 156.329)">
      <path id="Path_946" data-name="Path 946" d="M1149.064,213.541l-.2-.859a1.561,1.561,0,0,1-1.76-.985l-.842.273A2.454,2.454,0,0,0,1149.064,213.541Z" transform="translate(-1146.259 -211.697)" fill="#263238"/>
    </g>
    <path id="Path_947" data-name="Path 947" d="M1149.2,139.7c-1.277.064-2.522.33-3.782.508a5.253,5.253,0,0,0-4.328,3.573,4.929,4.929,0,0,0-.389,1.579c.388-.386.6-.866,1.091-1.109a.894.894,0,0,1,.957.009c.318.195.658.356.989.531a2.429,2.429,0,0,0,2.3.077,4.716,4.716,0,0,1,3.287-.315,3.391,3.391,0,0,1,2.606,3.262c.069.771.071,1.547.107,2.321.008.162.032.323.051.5a7.426,7.426,0,0,1,1.13-.195,1.407,1.407,0,0,1,1.375.7,2.5,2.5,0,0,1,.179,2.373,1.42,1.42,0,0,1-1.116.852c-.551.08-.534.294-.329.707a22.409,22.409,0,0,0,1.007,2.008c.433-.01.63-.351.877-.6a2.968,2.968,0,0,0,.958-1.739,11.515,11.515,0,0,0,2.062-6.249,7.052,7.052,0,0,0-.532-3.378c.657.169,1.258.311,1.779-.135a1.268,1.268,0,0,0,.426-.966c.072-.251.222-.123.357-.064a2.4,2.4,0,0,0,1.46-.049,1.468,1.468,0,0,0,.857-1.994c-.142-.285-.06-.33.179-.439a2.551,2.551,0,0,0,1.159-3.612c-.119-.2-.251-.451-.482-.5-.492-.1-.433-.378-.4-.74a2.375,2.375,0,0,0-1.263-2.43,2.542,2.542,0,0,0-2.762.024c-.152.1-.287.22-.52.4a1.041,1.041,0,0,0-.506-1.28,3.546,3.546,0,0,0-2.656-.466,1.91,1.91,0,0,0-1.63,2.037,1.476,1.476,0,0,0-.74-.25,1.049,1.049,0,0,0-.7.268c-.645.571-.484,1.234-.177,1.91a1.23,1.23,0,0,0-1.331,1.853,4.492,4.492,0,0,0,.923,1.218A12.449,12.449,0,0,0,1149.2,139.7Z" transform="translate(-125.927 0)" fill="#263238"/>
    <path id="Path_948" data-name="Path 948" d="M1097.2,242.761c-.521-.12-2.185,3.454-2.484,6.97-.454,5.341,2.262,7.564,3.105,11.819,1.648,8.318-4.74,14.782-10.186,26.365-7.325,15.578-8.9,35.6-2.981,38.963,4.115,2.339,8.122-5.5,21.366-7.667,12.852-2.1,22.192,3.128,24.1-.247,1.01-1.787-1.477-3.481-4.472-9.533,0,0-4.078-8.522-6.335-33.183-.544-5.942.347-5.828-.373-12.879a86.579,86.579,0,0,0-4.348-19.849s5.57,11.59,6.833,23.706a53.431,53.431,0,0,1-.8,16.035c2.341,3.6,4,3.737,4.648,3.676,2.833-.266,5.14-6.068,5.928-14.634-.863-2.431-5.444-15.288-10.587-27.843a15.641,15.641,0,0,0-5.652-7.588,14.116,14.116,0,0,0-6.648-2.223,9.931,9.931,0,0,0-5.526,4.78c-.787,1.756-.712,3.476-1.118,3.485-.456.01-1.24-2.144-.994-4.394.282-2.574,1.776-4.041,1.285-4.51-.3-.284-.9.2-3.315.817-1.04.266-1.112.222-1.93.451a17.658,17.658,0,0,0-3.056,1.159c-1.779.931-2.581,7.351-3.915,12.992-.475,2.009-1.347,5.7-1.894,5.632-.749-.086-1-7.227-.82-12.874.129-4.111.517-8.287-1.052-8.906a3.429,3.429,0,0,0-2.261.2,1.31,1.31,0,0,0-.294.442l-.015.044a31.557,31.557,0,0,0-1.574,10.343c-.1,6.231-.152,9.346.236,12.046.624,4.344,1.152,8.017,3.307,8.739,2.065.693,4.578-1.674,5.432-2.48C1098.1,255.753,1098.135,242.977,1097.2,242.761Z" transform="translate(-84.064 -70.431)" fill="#a4c1d2"/>
    <path id="Path_949" data-name="Path 949" d="M1190.553,235.156" transform="translate(-160.898 -71.825)" fill="#749698"/>
    <path id="Path_950" data-name="Path 950" d="M1213.3,400.083c-.3.151-.469.469-.792.584a.843.843,0,0,0-.533.562c-.194.516-.37,1.038-.533,1.565a2.508,2.508,0,0,0-.108,1.213,20.362,20.362,0,0,0,.512,2.4,5.392,5.392,0,0,1,.136,1.175,1.94,1.94,0,0,0,.028.193c.044.179.042.365.072.546.048.286.209.35.457.215a1.393,1.393,0,0,0,.623-.828,5.255,5.255,0,0,0,.144-1.807c0-.1-.02-.2-.028-.307-.007-.2-.026-.408-.035-.617.128.012.186.1.27.145.047.035.1.069.143.1a.679.679,0,0,1,.216.447c.08.4.14.809.245,1.2a6.613,6.613,0,0,1,.159,2.724,1.846,1.846,0,0,0,.612,1.432c.168.21.5.147.768.172a.74.74,0,0,0,.172-.063c.916.288,1.389-.1,1.818-.926a4.99,4.99,0,0,0,.8-3.085.378.378,0,0,1,.076-.32c.052-.15-.129-.288-.008-.454-.133.231.088.258.18.357a3.586,3.586,0,0,1,.18,2.666c-.056.191-.069.389.136.474s.243-.15.307-.263c.28-.488.543-.987.8-1.485a1.6,1.6,0,0,0,.033-1.157c-.156-.657-.336-1.308-.507-1.962a.121.121,0,0,0-.026-.106,35.194,35.194,0,0,0-1.973-3.058l-.281-.424c-.357-.471-.684-.963-1.08-1.4a2.028,2.028,0,0,0-1.981-.684c-.385.069-.559.461-.892.617A.148.148,0,0,0,1213.3,400.083Z" transform="translate(-175.451 -186.958)" fill="#b6918c"/>
    <path id="Path_951" data-name="Path 951" d="M1076.321,216.428c-.157-.095-.285-.194-1.141-1.316a10.47,10.47,0,0,1-1.594-2.391c-.316-.808-.474-1.211-.325-1.624.441-1.218,2.89-1.406,2.835-1.949a.093.093,0,0,0,0-.02c-.107-.305-.59-.438-1.354-.6-.649-.138-.918-.184-1.417-.3a3.61,3.61,0,0,1-1.166-.37c-.327-.2-.807-.59-.727-.794.066-.167.485-.151,1.834.013a23.449,23.449,0,0,1,3.336.532,4.626,4.626,0,0,1,2.214.945c.445.476.333.912.708,2.834.657,3.36.553,4.3,0,4.834a1.935,1.935,0,0,1-.656.389A2.922,2.922,0,0,1,1076.321,216.428Z" transform="translate(-77.321 -52.038)" fill="#b6918c"/>
    <path id="Path_952" data-name="Path 952" d="M1158.435,183.158a.493.493,0,0,0-.213.231.207.207,0,0,0,.109.264.319.319,0,0,0,.161-.009,6.011,6.011,0,0,1,2.069-.1c.12.015-.213-.383-.242-.408a1.363,1.363,0,0,0-.583-.222A1.787,1.787,0,0,0,1158.435,183.158Z" transform="translate(-138.209 -35.153)" fill="#263238"/>
    <path id="Path_953" data-name="Path 953" d="M1147.669,319.455a24.348,24.348,0,0,1-5.936.181,15.265,15.265,0,0,1-8.85-3.679l-.826-2.6a14.675,14.675,0,0,0,6.479,4.876A21.3,21.3,0,0,0,1147.669,319.455Z" transform="translate(-119.861 -126.684)" fill="#8da5b1"/>
    <path id="Path_954" data-name="Path 954" d="M1141.722,181.883a.47.47,0,0,0-.217.177c-.053.089-.062.225,0,.276a.179.179,0,0,0,.117.025,3.329,3.329,0,0,1,1.5.339c.081.04-.042-.412-.055-.441a.865.865,0,0,0-.351-.335A1.049,1.049,0,0,0,1141.722,181.883Z" transform="translate(-126.459 -34.378)" fill="#263238"/>
    <line id="Line_219" data-name="Line 219" x1="4.782" y1="4.76" transform="translate(1009.841 151.569)" fill="none" stroke="#263238" stroke-miterlimit="10" stroke-width="0.813"/>
    <line id="Line_220" data-name="Line 220" x1="3.083" y1="2.547" transform="translate(1011.032 153.819)" fill="none" stroke="#263238" stroke-miterlimit="10" stroke-width="0.813"/>
    <line id="Line_221" data-name="Line 221" y1="1.153" x2="2.427" transform="translate(1012.196 157.077)" fill="none" stroke="#263238" stroke-miterlimit="10" stroke-width="0.813"/>
    <path id="Path_955" data-name="Path 955" d="M1199.465,252.7" transform="translate(-167.15 -84.13)" fill="#1361a1"/>
    <line id="Line_222" data-name="Line 222" x2="22.579" transform="translate(968.142 144.001)" fill="none" stroke="#b1847f" stroke-miterlimit="10" stroke-width="2.325"/>
    <line id="Line_223" data-name="Line 223" x2="22.579" transform="translate(968.142 152.95)" fill="none" stroke="#b1847f" stroke-miterlimit="10" stroke-width="2.325"/>
  </g>
</svg>
