<svg xmlns="http://www.w3.org/2000/svg" width="224.022" height="197.811" viewBox="0 0 224.022 197.811">
  <g id="Group_686" data-name="Group 686" transform="translate(0)">
    <path id="Path_1109" data-name="Path 1109" d="M473.182,296.108H284.659a5.742,5.742,0,0,1-5.736-5.736v-106.3H478.918v106.3A5.742,5.742,0,0,1,473.182,296.108Z" transform="translate(-278.521 -177.607)" fill="#e6e6e6"/>
    <path id="Path_1110" data-name="Path 1110" d="M484.979,305.733H311.461a2.958,2.958,0,0,1-2.955-2.955V218.61a2.958,2.958,0,0,1,2.955-2.955H484.979a2.958,2.958,0,0,1,2.955,2.955v84.169A2.958,2.958,0,0,1,484.979,305.733Z" transform="translate(-297.821 -198.21)" fill="#fff"/>
    <path id="Path_1111" data-name="Path 1111" d="M478.566,175.812h-200.8v-4.605a5.742,5.742,0,0,1,5.736-5.736H472.831a5.742,5.742,0,0,1,5.736,5.736Z" transform="translate(-277.769 -165.471)" fill="#ffc951"/>
    <path id="Path_1112" data-name="Path 1112" d="M371.573,332.885H340.689a2.958,2.958,0,0,1-2.955-2.955v-20.3a2.958,2.958,0,0,1,2.955-2.955h30.884a2.958,2.958,0,0,1,2.955,2.955v20.3A2.958,2.958,0,0,1,371.573,332.885Z" transform="translate(-316.889 -257.589)" fill="#e6e6e6"/>
    <path id="Path_1113" data-name="Path 1113" d="M604.5,309.96h-97.58a1.643,1.643,0,1,1,0-3.287H604.5a1.643,1.643,0,0,1,0,3.287Z" transform="translate(-426.195 -257.59)" fill="#e6e6e6"/>
    <path id="Path_1114" data-name="Path 1114" d="M604.5,343.781h-97.58a1.643,1.643,0,0,1,0-3.287H604.5a1.643,1.643,0,0,1,0,3.287Z" transform="translate(-426.195 -279.654)" fill="#e6e6e6"/>
    <path id="Path_1115" data-name="Path 1115" d="M604.5,377.6h-97.58a1.643,1.643,0,1,1,0-3.287H604.5a1.643,1.643,0,0,1,0,3.287Z" transform="translate(-426.195 -301.719)" fill="#e6e6e6"/>
    <path id="Path_1116" data-name="Path 1116" d="M407.745,525.461h-4.262l-2.027-16.438h6.29Z" transform="translate(-261.905 -332.081)" fill="#a0616a"/>
    <path id="Path_1117" data-name="Path 1117" d="M388.819,552.808h8.219v5.175H383.644A5.175,5.175,0,0,1,388.819,552.808Z" transform="translate(-250.285 -360.646)" fill="#2f2e41"/>
    <path id="Path_1118" data-name="Path 1118" d="M458.745,525.461h-4.262l-2.027-16.438h6.29Z" transform="translate(-295.177 -332.081)" fill="#a0616a"/>
    <path id="Path_1119" data-name="Path 1119" d="M439.819,552.808h8.219v5.175H434.644A5.175,5.175,0,0,1,439.819,552.808Z" transform="translate(-283.556 -360.646)" fill="#2f2e41"/>
    <path id="Path_1120" data-name="Path 1120" d="M700.879,577h-4.338a1.574,1.574,0,0,1-1.559-1.435l-3.677-44.285a.521.521,0,0,0-1.037-.018l-5.28,44.359A1.565,1.565,0,0,1,683.435,577h-5.327a1.566,1.566,0,0,1-1.563-1.556c-.012-2.786-.031-5.593-.05-8.4-.169-25-.344-50.853,4.876-60.981l.048-.092,18.838-.322.047.1c5.7,12.455,3.97,40.279,2.3,67.187l-.161,2.593A1.567,1.567,0,0,1,700.879,577Z" transform="translate(-537.854 -387.401)" fill="#2f2e41"/>
    <circle id="Ellipse_174" data-name="Ellipse 174" cx="8.538" cy="8.538" r="8.538" transform="translate(145.564 67.89)" fill="#a0616a"/>
    <path id="Path_1121" data-name="Path 1121" d="M684.29,450.115l.235-9.789-1.694-7.638a12.311,12.311,0,0,1,2.738-10.817,12.124,12.124,0,0,1,10.157-4.211h0l.37.031a12.174,12.174,0,0,1,8.388,4.487,12.316,12.316,0,0,1,2.7,9.237l-2.049,17.908Z" transform="translate(-541.829 -329.972)" fill="#ffc951"/>
    <path id="Path_1122" data-name="Path 1122" d="M656.044,530.014a3.5,3.5,0,0,0,.183-5.357l4.807-11.454-6.344,1.192L651.1,525.089a3.514,3.514,0,0,0,4.946,4.925Z" transform="translate(-520.836 -392.327)" fill="#a0616a"/>
    <path id="Path_1123" data-name="Path 1123" d="M763.522,533.482a3.5,3.5,0,0,1,.122-5.359L759.5,516.414l6.266,1.55,2.978,10.881a3.514,3.514,0,0,1-5.218,4.636Z" transform="translate(-592.042 -394.422)" fill="#a0616a"/>
    <path id="Path_1124" data-name="Path 1124" d="M659.128,469.744a1.566,1.566,0,0,1-.64-.137l-3.657-1.638a1.562,1.562,0,0,1-.85-1.907l6.135-19.056,2.371-14.356a3.855,3.855,0,1,1,7.557,1.507l-3.6,15.4-5.817,19.082a1.563,1.563,0,0,1-1.5,1.108Z" transform="translate(-523.156 -337.67)" fill="#ffc951"/>
    <path id="Path_1125" data-name="Path 1125" d="M748.612,469.745a1.563,1.563,0,0,1-1.5-1.108L741.3,449.565,737.7,434.158a3.855,3.855,0,1,1,7.557-1.507l2.377,14.381,6.129,19.031a1.562,1.562,0,0,1-.85,1.907l-3.657,1.638A1.565,1.565,0,0,1,748.612,469.745Z" transform="translate(-577.753 -337.671)" fill="#ffc951"/>
    <path id="Path_1126" data-name="Path 1126" d="M696.456,357.224a5.042,5.042,0,0,0-6.43,2.653,8.321,8.321,0,0,0-.086,4.756,20.428,20.428,0,0,1,.747,4.756,4.659,4.659,0,0,1-2.17,4.06,14.4,14.4,0,0,1-2.774.759,2.57,2.57,0,0,0-2.011,1.838c-.2,1.441,1.546,2.538,1.535,3.993-.012,1.541-1.938,2.457-2.188,3.978a2.64,2.64,0,0,0,1.018,2.346,6.919,6.919,0,0,0,2.393,1.159,41.3,41.3,0,0,0,20.6,1.174,8.263,8.263,0,0,0,3.822-1.538,3.255,3.255,0,0,0,1.055-3.722c-.912-1.872-3.808-1.978-4.817-3.8-.605-1.092-.327-2.434-.2-3.676.329-3.209,1.089-6.957.291-10.083-.72-2.824-2.284-6.473-4.519-8.343-1.6-1.342-4.665-.73-6.715-.317Z" transform="translate(-542.179 -290.234)" fill="#2f2e41"/>
    <path id="Path_1127" data-name="Path 1127" d="M692.243,733.224H570.579a.348.348,0,0,1,0-.7H692.243a.348.348,0,1,1,0,.7Z" transform="translate(-468.567 -535.413)" fill="#ccc"/>
    <path id="Path_1128" data-name="Path 1128" d="M854.474,680.06c-5.012,6.713-15.417,7.419-15.417,7.419s-2.278-10.177,2.734-16.89,15.417-7.419,15.417-7.419S859.486,673.347,854.474,680.06Z" transform="translate(-643.609 -490.164)" fill="#e6e6e6"/>
    <path id="Path_1129" data-name="Path 1129" d="M806.9,698.1c3.308,4.43,10.173,4.9,10.173,4.9s1.5-6.715-1.8-11.145-10.173-4.9-10.173-4.9S803.588,693.671,806.9,698.1Z" transform="translate(-621.565 -505.681)" fill="#e6e6e6"/>
  </g>
</svg>
