<svg xmlns="http://www.w3.org/2000/svg" width="153.5" height="115.131" viewBox="0 0 153.5 115.131">
  <g id="Group_692" data-name="Group 692" transform="translate(0 -0.001)">
    <path id="Path_1272" data-name="Path 1272" d="M664.083,640.125H617.731v-.379h46.421Z" transform="translate(-510.652 -528.85)" fill="#3f3d56"/>
    <circle id="Ellipse_186" data-name="Ellipse 186" cx="1.336" cy="1.336" r="1.336" transform="translate(6.102 0.001)" fill="#e6e6e6"/>
    <circle id="Ellipse_187" data-name="Ellipse 187" cx="1.336" cy="1.336" r="1.336" transform="translate(12.864 0.001)" fill="#e6e6e6"/>
    <circle id="Ellipse_188" data-name="Ellipse 188" cx="1.336" cy="1.336" r="1.336" transform="translate(19.627 0.001)" fill="#e6e6e6"/>
    <circle id="Ellipse_189" data-name="Ellipse 189" cx="1.336" cy="1.336" r="1.336" transform="translate(26.39 0.001)" fill="#e6e6e6"/>
    <circle id="Ellipse_190" data-name="Ellipse 190" cx="1.336" cy="1.336" r="1.336" transform="translate(33.153 0.001)" fill="#e6e6e6"/>
    <circle id="Ellipse_191" data-name="Ellipse 191" cx="1.336" cy="1.336" r="1.336" transform="translate(39.916 0.001)" fill="#e6e6e6"/>
    <circle id="Ellipse_192" data-name="Ellipse 192" cx="1.336" cy="1.336" r="1.336" transform="translate(46.679 0.001)" fill="#e6e6e6"/>
    <circle id="Ellipse_193" data-name="Ellipse 193" cx="1.336" cy="1.336" r="1.336" transform="translate(53.442 0.001)" fill="#e6e6e6"/>
    <circle id="Ellipse_194" data-name="Ellipse 194" cx="1.336" cy="1.336" r="1.336" transform="translate(60.205 0.001)" fill="#e6e6e6"/>
    <circle id="Ellipse_195" data-name="Ellipse 195" cx="1.336" cy="1.336" r="1.336" transform="translate(66.968 0.001)" fill="#e6e6e6"/>
    <circle id="Ellipse_196" data-name="Ellipse 196" cx="1.336" cy="1.336" r="1.336" transform="translate(6.102 6.849)" fill="#e6e6e6"/>
    <circle id="Ellipse_197" data-name="Ellipse 197" cx="1.336" cy="1.336" r="1.336" transform="translate(12.864 6.849)" fill="#e6e6e6"/>
    <circle id="Ellipse_198" data-name="Ellipse 198" cx="1.336" cy="1.336" r="1.336" transform="translate(19.627 6.849)" fill="#e6e6e6"/>
    <circle id="Ellipse_199" data-name="Ellipse 199" cx="1.336" cy="1.336" r="1.336" transform="translate(26.39 6.849)" fill="#2c82d0"/>
    <circle id="Ellipse_200" data-name="Ellipse 200" cx="1.336" cy="1.336" r="1.336" transform="translate(33.153 6.849)" fill="#e6e6e6"/>
    <circle id="Ellipse_201" data-name="Ellipse 201" cx="1.336" cy="1.336" r="1.336" transform="translate(39.916 6.849)" fill="#e6e6e6"/>
    <circle id="Ellipse_202" data-name="Ellipse 202" cx="1.336" cy="1.336" r="1.336" transform="translate(46.679 6.849)" fill="#e6e6e6"/>
    <circle id="Ellipse_203" data-name="Ellipse 203" cx="1.336" cy="1.336" r="1.336" transform="translate(53.442 6.849)" fill="#e6e6e6"/>
    <circle id="Ellipse_204" data-name="Ellipse 204" cx="1.336" cy="1.336" r="1.336" transform="translate(60.205 6.849)" fill="#e6e6e6"/>
    <circle id="Ellipse_205" data-name="Ellipse 205" cx="1.336" cy="1.336" r="1.336" transform="translate(66.968 6.849)" fill="#e6e6e6"/>
    <circle id="Ellipse_206" data-name="Ellipse 206" cx="1.336" cy="1.336" r="1.336" transform="translate(6.102 13.696)" fill="#e6e6e6"/>
    <circle id="Ellipse_207" data-name="Ellipse 207" cx="1.336" cy="1.336" r="1.336" transform="translate(12.864 13.696)" fill="#e6e6e6"/>
    <circle id="Ellipse_208" data-name="Ellipse 208" cx="1.336" cy="1.336" r="1.336" transform="translate(19.627 13.696)" fill="#e6e6e6"/>
    <circle id="Ellipse_209" data-name="Ellipse 209" cx="1.336" cy="1.336" r="1.336" transform="translate(26.39 13.696)" fill="#e6e6e6"/>
    <circle id="Ellipse_210" data-name="Ellipse 210" cx="1.336" cy="1.336" r="1.336" transform="translate(33.153 13.696)" fill="#e6e6e6"/>
    <circle id="Ellipse_211" data-name="Ellipse 211" cx="1.336" cy="1.336" r="1.336" transform="translate(39.916 13.696)" fill="#e6e6e6"/>
    <circle id="Ellipse_212" data-name="Ellipse 212" cx="1.336" cy="1.336" r="1.336" transform="translate(46.679 13.696)" fill="#e6e6e6"/>
    <circle id="Ellipse_213" data-name="Ellipse 213" cx="1.336" cy="1.336" r="1.336" transform="translate(53.442 13.696)" fill="#e6e6e6"/>
    <circle id="Ellipse_214" data-name="Ellipse 214" cx="1.336" cy="1.336" r="1.336" transform="translate(60.205 13.696)" fill="#e6e6e6"/>
    <circle id="Ellipse_215" data-name="Ellipse 215" cx="1.336" cy="1.336" r="1.336" transform="translate(66.968 13.696)" fill="#e6e6e6"/>
    <circle id="Ellipse_216" data-name="Ellipse 216" cx="1.336" cy="1.336" r="1.336" transform="translate(6.102 20.544)" fill="#e6e6e6"/>
    <circle id="Ellipse_217" data-name="Ellipse 217" cx="1.336" cy="1.336" r="1.336" transform="translate(12.864 20.544)" fill="#e6e6e6"/>
    <circle id="Ellipse_218" data-name="Ellipse 218" cx="1.336" cy="1.336" r="1.336" transform="translate(19.627 20.544)" fill="#e6e6e6"/>
    <circle id="Ellipse_219" data-name="Ellipse 219" cx="1.336" cy="1.336" r="1.336" transform="translate(26.39 20.544)" fill="#e6e6e6"/>
    <circle id="Ellipse_220" data-name="Ellipse 220" cx="1.336" cy="1.336" r="1.336" transform="translate(33.153 20.544)" fill="#e6e6e6"/>
    <circle id="Ellipse_221" data-name="Ellipse 221" cx="1.336" cy="1.336" r="1.336" transform="translate(39.916 20.544)" fill="#e6e6e6"/>
    <circle id="Ellipse_222" data-name="Ellipse 222" cx="1.336" cy="1.336" r="1.336" transform="translate(46.679 20.544)" fill="#e6e6e6"/>
    <circle id="Ellipse_223" data-name="Ellipse 223" cx="1.336" cy="1.336" r="1.336" transform="translate(53.442 20.544)" fill="#e6e6e6"/>
    <circle id="Ellipse_224" data-name="Ellipse 224" cx="1.336" cy="1.336" r="1.336" transform="translate(60.205 20.544)" fill="#e6e6e6"/>
    <circle id="Ellipse_225" data-name="Ellipse 225" cx="1.336" cy="1.336" r="1.336" transform="translate(66.968 20.544)" fill="#e6e6e6"/>
    <circle id="Ellipse_226" data-name="Ellipse 226" cx="1.336" cy="1.336" r="1.336" transform="translate(6.102 27.392)" fill="#e6e6e6"/>
    <circle id="Ellipse_227" data-name="Ellipse 227" cx="1.336" cy="1.336" r="1.336" transform="translate(12.864 27.392)" fill="#2c82d0"/>
    <circle id="Ellipse_228" data-name="Ellipse 228" cx="1.336" cy="1.336" r="1.336" transform="translate(19.627 27.392)" fill="#e6e6e6"/>
    <circle id="Ellipse_229" data-name="Ellipse 229" cx="1.336" cy="1.336" r="1.336" transform="translate(26.39 27.392)" fill="#e6e6e6"/>
    <circle id="Ellipse_230" data-name="Ellipse 230" cx="1.336" cy="1.336" r="1.336" transform="translate(33.153 27.392)" fill="#e6e6e6"/>
    <circle id="Ellipse_231" data-name="Ellipse 231" cx="1.336" cy="1.336" r="1.336" transform="translate(39.916 27.392)" fill="#e6e6e6"/>
    <circle id="Ellipse_232" data-name="Ellipse 232" cx="1.336" cy="1.336" r="1.336" transform="translate(46.679 27.392)" fill="#e6e6e6"/>
    <circle id="Ellipse_233" data-name="Ellipse 233" cx="1.336" cy="1.336" r="1.336" transform="translate(53.442 27.392)" fill="#e6e6e6"/>
    <circle id="Ellipse_234" data-name="Ellipse 234" cx="1.336" cy="1.336" r="1.336" transform="translate(60.205 27.392)" fill="#e6e6e6"/>
    <circle id="Ellipse_235" data-name="Ellipse 235" cx="1.336" cy="1.336" r="1.336" transform="translate(66.968 27.392)" fill="#e6e6e6"/>
    <circle id="Ellipse_236" data-name="Ellipse 236" cx="1.336" cy="1.336" r="1.336" transform="translate(6.102 34.24)" fill="#e6e6e6"/>
    <circle id="Ellipse_237" data-name="Ellipse 237" cx="1.336" cy="1.336" r="1.336" transform="translate(12.864 34.24)" fill="#e6e6e6"/>
    <circle id="Ellipse_238" data-name="Ellipse 238" cx="1.336" cy="1.336" r="1.336" transform="translate(19.627 34.24)" fill="#e6e6e6"/>
    <circle id="Ellipse_239" data-name="Ellipse 239" cx="1.336" cy="1.336" r="1.336" transform="translate(26.39 34.24)" fill="#e6e6e6"/>
    <circle id="Ellipse_240" data-name="Ellipse 240" cx="1.336" cy="1.336" r="1.336" transform="translate(33.153 34.24)" fill="#e6e6e6"/>
    <circle id="Ellipse_241" data-name="Ellipse 241" cx="1.336" cy="1.336" r="1.336" transform="translate(39.916 34.24)" fill="#e6e6e6"/>
    <circle id="Ellipse_242" data-name="Ellipse 242" cx="1.336" cy="1.336" r="1.336" transform="translate(46.679 34.24)" fill="#e6e6e6"/>
    <circle id="Ellipse_243" data-name="Ellipse 243" cx="1.336" cy="1.336" r="1.336" transform="translate(53.442 34.24)" fill="#e6e6e6"/>
    <circle id="Ellipse_244" data-name="Ellipse 244" cx="1.336" cy="1.336" r="1.336" transform="translate(60.205 34.24)" fill="#e6e6e6"/>
    <circle id="Ellipse_245" data-name="Ellipse 245" cx="1.336" cy="1.336" r="1.336" transform="translate(66.968 34.24)" fill="#e6e6e6"/>
    <circle id="Ellipse_246" data-name="Ellipse 246" cx="1.336" cy="1.336" r="1.336" transform="translate(6.102 41.087)" fill="#e6e6e6"/>
    <circle id="Ellipse_247" data-name="Ellipse 247" cx="1.336" cy="1.336" r="1.336" transform="translate(12.864 41.087)" fill="#e6e6e6"/>
    <circle id="Ellipse_248" data-name="Ellipse 248" cx="1.336" cy="1.336" r="1.336" transform="translate(19.627 41.087)" fill="#2c82d0"/>
    <circle id="Ellipse_249" data-name="Ellipse 249" cx="1.336" cy="1.336" r="1.336" transform="translate(26.39 41.087)" fill="#e6e6e6"/>
    <circle id="Ellipse_250" data-name="Ellipse 250" cx="1.336" cy="1.336" r="1.336" transform="translate(33.153 41.087)" fill="#e6e6e6"/>
    <circle id="Ellipse_251" data-name="Ellipse 251" cx="1.336" cy="1.336" r="1.336" transform="translate(39.916 41.087)" fill="#e6e6e6"/>
    <circle id="Ellipse_252" data-name="Ellipse 252" cx="1.336" cy="1.336" r="1.336" transform="translate(46.679 41.087)" fill="#e6e6e6"/>
    <circle id="Ellipse_253" data-name="Ellipse 253" cx="1.336" cy="1.336" r="1.336" transform="translate(53.442 41.087)" fill="#e6e6e6"/>
    <circle id="Ellipse_254" data-name="Ellipse 254" cx="1.336" cy="1.336" r="1.336" transform="translate(60.205 41.087)" fill="#e6e6e6"/>
    <circle id="Ellipse_255" data-name="Ellipse 255" cx="1.336" cy="1.336" r="1.336" transform="translate(66.968 41.087)" fill="#e6e6e6"/>
    <circle id="Ellipse_256" data-name="Ellipse 256" cx="1.336" cy="1.336" r="1.336" transform="translate(6.102 47.935)" fill="#e6e6e6"/>
    <circle id="Ellipse_257" data-name="Ellipse 257" cx="1.336" cy="1.336" r="1.336" transform="translate(12.864 47.935)" fill="#e6e6e6"/>
    <circle id="Ellipse_258" data-name="Ellipse 258" cx="1.336" cy="1.336" r="1.336" transform="translate(19.627 47.935)" fill="#e6e6e6"/>
    <circle id="Ellipse_259" data-name="Ellipse 259" cx="1.336" cy="1.336" r="1.336" transform="translate(26.39 47.935)" fill="#e6e6e6"/>
    <circle id="Ellipse_260" data-name="Ellipse 260" cx="1.336" cy="1.336" r="1.336" transform="translate(33.153 47.935)" fill="#e6e6e6"/>
    <circle id="Ellipse_261" data-name="Ellipse 261" cx="1.336" cy="1.336" r="1.336" transform="translate(39.916 47.935)" fill="#e6e6e6"/>
    <circle id="Ellipse_262" data-name="Ellipse 262" cx="1.336" cy="1.336" r="1.336" transform="translate(46.679 47.935)" fill="#e6e6e6"/>
    <circle id="Ellipse_263" data-name="Ellipse 263" cx="1.336" cy="1.336" r="1.336" transform="translate(53.442 47.935)" fill="#e6e6e6"/>
    <circle id="Ellipse_264" data-name="Ellipse 264" cx="1.336" cy="1.336" r="1.336" transform="translate(60.205 47.935)" fill="#e6e6e6"/>
    <circle id="Ellipse_265" data-name="Ellipse 265" cx="1.336" cy="1.336" r="1.336" transform="translate(66.968 47.935)" fill="#e6e6e6"/>
    <circle id="Ellipse_266" data-name="Ellipse 266" cx="1.336" cy="1.336" r="1.336" transform="translate(6.102 54.783)" fill="#e6e6e6"/>
    <circle id="Ellipse_267" data-name="Ellipse 267" cx="1.336" cy="1.336" r="1.336" transform="translate(12.864 54.783)" fill="#e6e6e6"/>
    <circle id="Ellipse_268" data-name="Ellipse 268" cx="1.336" cy="1.336" r="1.336" transform="translate(19.627 54.783)" fill="#e6e6e6"/>
    <circle id="Ellipse_269" data-name="Ellipse 269" cx="1.336" cy="1.336" r="1.336" transform="translate(26.39 54.783)" fill="#e6e6e6"/>
    <circle id="Ellipse_270" data-name="Ellipse 270" cx="1.336" cy="1.336" r="1.336" transform="translate(33.153 54.783)" fill="#e6e6e6"/>
    <circle id="Ellipse_271" data-name="Ellipse 271" cx="1.336" cy="1.336" r="1.336" transform="translate(39.916 54.783)" fill="#e6e6e6"/>
    <circle id="Ellipse_272" data-name="Ellipse 272" cx="1.336" cy="1.336" r="1.336" transform="translate(46.679 54.783)" fill="#e6e6e6"/>
    <circle id="Ellipse_273" data-name="Ellipse 273" cx="1.336" cy="1.336" r="1.336" transform="translate(53.442 54.783)" fill="#e6e6e6"/>
    <circle id="Ellipse_274" data-name="Ellipse 274" cx="1.336" cy="1.336" r="1.336" transform="translate(60.205 54.783)" fill="#e6e6e6"/>
    <circle id="Ellipse_275" data-name="Ellipse 275" cx="1.336" cy="1.336" r="1.336" transform="translate(66.968 54.783)" fill="#e6e6e6"/>
    <circle id="Ellipse_276" data-name="Ellipse 276" cx="1.336" cy="1.336" r="1.336" transform="translate(6.102 61.631)" fill="#e6e6e6"/>
    <circle id="Ellipse_277" data-name="Ellipse 277" cx="1.336" cy="1.336" r="1.336" transform="translate(12.864 61.631)" fill="#e6e6e6"/>
    <circle id="Ellipse_278" data-name="Ellipse 278" cx="1.336" cy="1.336" r="1.336" transform="translate(19.627 61.631)" fill="#e6e6e6"/>
    <circle id="Ellipse_279" data-name="Ellipse 279" cx="1.336" cy="1.336" r="1.336" transform="translate(26.39 61.631)" fill="#e6e6e6"/>
    <circle id="Ellipse_280" data-name="Ellipse 280" cx="1.336" cy="1.336" r="1.336" transform="translate(33.153 61.631)" fill="#e6e6e6"/>
    <circle id="Ellipse_281" data-name="Ellipse 281" cx="1.336" cy="1.336" r="1.336" transform="translate(39.916 61.631)" fill="#e6e6e6"/>
    <circle id="Ellipse_282" data-name="Ellipse 282" cx="1.336" cy="1.336" r="1.336" transform="translate(46.679 61.631)" fill="#e6e6e6"/>
    <circle id="Ellipse_283" data-name="Ellipse 283" cx="1.336" cy="1.336" r="1.336" transform="translate(53.442 61.631)" fill="#e6e6e6"/>
    <circle id="Ellipse_284" data-name="Ellipse 284" cx="1.336" cy="1.336" r="1.336" transform="translate(60.205 61.631)" fill="#e6e6e6"/>
    <circle id="Ellipse_285" data-name="Ellipse 285" cx="1.336" cy="1.336" r="1.336" transform="translate(66.968 61.631)" fill="#e6e6e6"/>
    <path id="Path_1273" data-name="Path 1273" d="M168.978,173.35l15.856-27.785h-31.73l-15.873,27.493,15.873,27.493h31.747L200.7,173.11Z" transform="translate(-113.444 -120.332)" fill="#3f3d56"/>
    <path id="Path_1274" data-name="Path 1274" d="M374.81,159.647l.03-.051L358.966,132.1h-.017l-15.856,27.785Z" transform="translate(-283.621 -109.202)" fill="#2c82d0"/>
    <path id="Path_1275" data-name="Path 1275" d="M813.927,241.726a2.45,2.45,0,0,1,0-2.646,1.338,1.338,0,0,1,1.074-.453,1.361,1.361,0,0,1,1.087.453,2.429,2.429,0,0,1,0,2.646,1.361,1.361,0,0,1-1.087.453A1.338,1.338,0,0,1,813.927,241.726Zm1.54-.47a1.848,1.848,0,0,0,.147-.858,1.783,1.783,0,0,0-.151-.845.5.5,0,0,0-.461-.265.481.481,0,0,0-.449.265,1.826,1.826,0,0,0-.147.845,1.849,1.849,0,0,0,.147.853.481.481,0,0,0,.449.265.5.5,0,0,0,.466-.261Zm-.523,3.267,3.365-5.815h.907l-3.373,5.815Zm3.124-.4a2,2,0,0,1-.388-1.335,1.96,1.96,0,0,1,.388-1.315,1.528,1.528,0,0,1,2.164,0,2.457,2.457,0,0,1,0,2.65,1.518,1.518,0,0,1-2.164,0Zm1.539-.474a1.849,1.849,0,0,0,.147-.854,1.785,1.785,0,0,0-.151-.845.523.523,0,0,0-.911,0,1.829,1.829,0,0,0-.147.845,1.852,1.852,0,0,0,.147.854.527.527,0,0,0,.915,0Z" transform="translate(-699.774 -217.698)" fill="#3f3d56"/>
    <path id="Path_1276" data-name="Path 1276" d="M157.624,531.124a2.45,2.45,0,0,1,0-2.646,1.339,1.339,0,0,1,1.074-.453,1.361,1.361,0,0,1,1.087.453,2.429,2.429,0,0,1,0,2.646,1.36,1.36,0,0,1-1.086.453A1.338,1.338,0,0,1,157.624,531.124Zm1.54-.47a1.848,1.848,0,0,0,.147-.858,1.783,1.783,0,0,0-.151-.845.5.5,0,0,0-.461-.265.481.481,0,0,0-.449.265,1.826,1.826,0,0,0-.147.845,1.849,1.849,0,0,0,.147.853.481.481,0,0,0,.449.266.5.5,0,0,0,.466-.261Zm-.523,3.267,3.365-5.815h.907l-3.373,5.815Zm3.124-.4a2,2,0,0,1-.388-1.335,1.96,1.96,0,0,1,.388-1.315,1.528,1.528,0,0,1,2.164,0,2.457,2.457,0,0,1,0,2.651,1.518,1.518,0,0,1-2.164,0Zm1.539-.474a1.849,1.849,0,0,0,.147-.854,1.785,1.785,0,0,0-.151-.845.523.523,0,0,0-.911,0,1.828,1.828,0,0,0-.147.845,1.851,1.851,0,0,0,.147.854.527.527,0,0,0,.915,0Z" transform="translate(-157.236 -456.931)" fill="#3f3d56"/>
    <path id="Path_1277" data-name="Path 1277" d="M438.3,154.2l-.205-.055,4.482-16.859h25.995v.213H442.743Z" transform="translate(-362.157 -113.492)" fill="#2f2e41"/>
    <path id="Path_1278" data-name="Path 1278" d="M772.766,247.405a2.23,2.23,0,1,1,2.23-2.23A2.23,2.23,0,0,1,772.766,247.405Zm0-4.248a2.018,2.018,0,1,0,2.018,2.018,2.018,2.018,0,0,0-2.018-2.018Z" transform="translate(-664.225 -221.27)" fill="#2f2e41"/>
    <circle id="Ellipse_286" data-name="Ellipse 286" cx="0.85" cy="0.85" r="0.85" transform="translate(107.691 23.056)" fill="#2c82d0"/>
    <path id="Path_1279" data-name="Path 1279" d="M105.6,330.343l.205.055-4.482,16.859H75.326v-.212h25.831Z" transform="translate(-62.269 -273.08)" fill="#2f2e41"/>
    <path id="Path_1280" data-name="Path 1280" d="M209.673,532.342a2.23,2.23,0,1,1-2.23,2.23A2.23,2.23,0,0,1,209.673,532.342Zm0,4.248a2.018,2.018,0,1,0-2.018-2.018,2.018,2.018,0,0,0,2.018,2.018Z" transform="translate(-198.74 -460.502)" fill="#2f2e41"/>
    <circle id="Ellipse_287" data-name="Ellipse 287" cx="0.85" cy="0.85" r="0.85" transform="translate(10.083 73.221)" fill="#2c82d0"/>
    <rect id="Rectangle_693" data-name="Rectangle 693" width="3.225" height="4.386" transform="translate(124.659 107.695)" fill="#a0616a"/>
    <rect id="Rectangle_694" data-name="Rectangle 694" width="3.225" height="4.386" transform="translate(141.042 107.695)" fill="#a0616a"/>
    <path id="Path_1281" data-name="Path 1281" d="M993.284,497.961h0a1.914,1.914,0,0,1-1.891-2.21l.528-3.367.157-1h2.451l.129,1.419.51,2.916a1.914,1.914,0,0,1-1.885,2.243Z" transform="translate(-846.78 -426.642)" fill="#a0616a"/>
    <path id="Path_1282" data-name="Path 1282" d="M854.867,495.729h0a1.914,1.914,0,0,1-1.891-2.21l.528-3.367.157-1h2.451l.129,1.419.51,2.916a1.914,1.914,0,0,1-1.885,2.243Z" transform="translate(-732.356 -424.797)" fill="#a0616a"/>
    <path id="Path_1283" data-name="Path 1283" d="M732.995,415.488l-3.87-.129L722.8,377.177l-6.321,38.311-3.741-.129-1.032-44.116h21.671Z" transform="translate(-588.341 -306.89)" fill="#2f2e41"/>
    <path id="Path_1284" data-name="Path 1284" d="M857.125,752.791c-3.283.095-5.854-.793-7.539-2.9a1.392,1.392,0,0,1-.105-1.585h0a1.391,1.391,0,0,1,1.355-.666l1.067.125,2.222-1.11c-.454,2.643.782,2.693,3.739,1.807l.533,2.73a1.341,1.341,0,0,1-1.271,1.6Z" transform="translate(-729.322 -637.665)" fill="#2f2e41"/>
    <path id="Path_1285" data-name="Path 1285" d="M951.633,753.649c-3.283.095-5.854-.793-7.539-2.9a1.392,1.392,0,0,1-.105-1.585h0a1.391,1.391,0,0,1,1.355-.666l1.067.125,2.205-.93c-.455,2.643.8,2.513,3.755,1.627l.533,2.73a1.341,1.341,0,0,1-1.271,1.6Z" transform="translate(-807.448 -638.523)" fill="#2f2e41"/>
    <circle id="Ellipse_288" data-name="Ellipse 288" cx="5.16" cy="5.16" r="5.16" transform="translate(128.013 13.658)" fill="#a0616a"/>
    <path id="Path_1286" data-name="Path 1286" d="M770.351,127.816l-5.547.258-.258-5.8,4.773-1.806Z" transform="translate(-632.018 -99.581)" fill="#a0616a"/>
    <path id="Path_1287" data-name="Path 1287" d="M896.832,302.716c-7.564-1.431-16.182-1.944-21.929,0l1.806-37.924,6.063-1.806.451-.709,5.1-.838,2.451.774,1.548,2.322,6.708,3.741C895.722,281.047,894.745,292.652,896.832,302.716Z" transform="translate(-750.501 -236.557)" fill="#2f2e41"/>
    <path id="Path_1288" data-name="Path 1288" d="M995.788,330.755l-5.547-.645c1.156-5.633.683-12.96.967-20.317.18-4.666,1.148-8.912,1.483-14.125h0c2.1.549,3.193,2.5,3.205,4.8C995.958,311.391,996.989,321.621,995.788,330.755Z" transform="translate(-845.846 -264.855)" fill="#2f2e41"/>
    <path id="Path_1289" data-name="Path 1289" d="M857.249,316.091l-5.418-.387,3.225-18.317,1.092-15.243c-.17-2.223,1.018-3.515,2.778-3.59h0c3.844,4.552,4.29,10.826,3.1,17.93Z" transform="translate(-731.428 -250.706)" fill="#2f2e41"/>
    <path id="Path_1290" data-name="Path 1290" d="M888.62,197.789l-.665-1.894a6.213,6.213,0,0,0-4.923-4.082h0l-4.17-.1,1.158-1.861a5.658,5.658,0,0,1,5.365-2.641l4.168.415a3.775,3.775,0,0,1,3.385,4.107l-.382,4.1a2.582,2.582,0,0,1-3.934,1.952Z" transform="translate(-753.774 -175.178)" fill="#2f2e41"/>
  </g>
</svg>
