<svg xmlns="http://www.w3.org/2000/svg" xmlns:xlink="http://www.w3.org/1999/xlink" width="238.688" height="166.133" viewBox="0 0 238.688 166.133">
  <defs>
    <linearGradient id="linear-gradient" x1="0.5" y1="1" x2="0.5" gradientUnits="objectBoundingBox">
      <stop offset="0" stop-color="gray" stop-opacity="0.251"/>
      <stop offset="0.54" stop-color="gray" stop-opacity="0.122"/>
      <stop offset="1" stop-color="gray" stop-opacity="0.102"/>
    </linearGradient>
    <linearGradient id="linear-gradient-2" x1="0" y1="0.5" x2="1" y2="0.5" xlink:href="#linear-gradient"/>
  </defs>
  <g id="Group_691" data-name="Group 691" transform="translate(-45.673 -31.104)">
    <path id="Path_1184" data-name="Path 1184" d="M784.978,292.227a3.38,3.38,0,0,0-1.481-.649c-.567-.13-1.147-.212-1.723-.3L774.3,290.2a8.8,8.8,0,0,0-2.288-.121,2.9,2.9,0,0,0-1.99,1.032,1.551,1.551,0,0,0-.346.971,2.562,2.562,0,0,0,.34,1.007,3.364,3.364,0,0,1,.185.446,10.19,10.19,0,0,0,.267,1.016.859.859,0,0,0,.127.2.331.331,0,0,1,0,.052c-.082.419.182.856.064,1.259-.1.346-.44.555-.652.843a1.268,1.268,0,0,0-.03,1.4c.228.352.64.592.759,1,.155.531-.264,1.044-.637,1.453a22.529,22.529,0,0,0-1.9,2.394,1.484,1.484,0,0,0-.3.713c-.033.528.473.992.385,1.517-.07.413-.473.664-.822.91a5.117,5.117,0,0,0-2.427,3.759,13.168,13.168,0,0,0-2.937-6.675,4.773,4.773,0,0,1-1.089-1.708c-.067-.264-.079-.546-.17-.8-.3-.8-1.268-1.15-1.69-1.89-.3-.522-.3-1.192-.68-1.651s-.968-.561-1.293-1a6.422,6.422,0,0,1-.413-.934,2.043,2.043,0,0,0-.561-.674,1.641,1.641,0,0,0-.14-.1.482.482,0,0,0,.161-.358c0-.355-.352-.589-.658-.765-.394-.224-.78-.467-1.156-.719a2.7,2.7,0,0,0,1.035-.846,2.782,2.782,0,0,0,.394-1.82,2.3,2.3,0,0,0-.543-1.393c-.191-.2-.431-.349-.631-.54a4.428,4.428,0,0,1-.91-1.948,3.963,3.963,0,0,0-1.563-2.348c-.4-.234-.868-.343-1.259-.589a1.1,1.1,0,0,1-.583-1.156c.091-.3.373-.513.564-.771a1.535,1.535,0,0,0-.385-2.124c-.224-.143-.5-.267-.546-.528a.965.965,0,0,1-.7-.746,2.875,2.875,0,0,1,0-1.08q.118-.846.234-1.687a1.1,1.1,0,0,0,.843,0,7.424,7.424,0,0,0,.91,1.189,11.884,11.884,0,0,1,2.124,3.686,2.22,2.22,0,0,0,.8,1.286c.155.088.331.134.482.228a1.8,1.8,0,0,1,.473.485c.364.482.728.962,1.089,1.444l.018.073a.425.425,0,0,0,.049.121.4.4,0,0,0,.261.133,4.422,4.422,0,0,0,3.337-.115c.874-.546,1.256-1.626,2-2.348.525-.513,1.268-.91,1.417-1.632a5.373,5.373,0,0,1-.522-.191c.152-.152.3-.328.51-.528a6.43,6.43,0,0,0,.807-.962,6.2,6.2,0,0,0,.607-1.359q.877-2.5,1.76-5c.279-.789.558-1.584.91-2.351.364-.831.795-1.629,1.192-2.445a32.463,32.463,0,0,0,2.36-6.645,2.427,2.427,0,0,0,.094-.968,2.552,2.552,0,0,0-.862-1.311,6.325,6.325,0,0,0-1.292-1.071,2.124,2.124,0,0,0-1.62-.261,2.341,2.341,0,0,0-1.444,1.82,19.11,19.11,0,0,0-.188,2.427c-.109,1.168-.51,2.3-.607,3.468-.052.677,0,1.362-.082,2.039a7.438,7.438,0,0,1-.91,2.512,16.262,16.262,0,0,1-3.923,4.836c-.185.155-.376.3-.558.47a2.9,2.9,0,0,1,.039-.394,2.378,2.378,0,0,0-.385.137,1.155,1.155,0,0,0-.046-.455c-.243-.725-1.323-.91-1.517-1.647a3.364,3.364,0,0,1-.052-.552,14.049,14.049,0,0,0-.655-1.82,7.775,7.775,0,0,0-.3-1.751,4.893,4.893,0,0,0-.807-.91,3.573,3.573,0,0,1-.768-1.447c-.039-.149-.076-.3-.118-.452a2.068,2.068,0,0,0-.109-1c-.276-.686-.989-1.126-1.247-1.82-.2-.54-.112-1.214-.491-1.632a1.775,1.775,0,0,0-.719-.434,16,16,0,0,0-4.33-1.022,3.687,3.687,0,0,1-2.342-.7c-.695-.68-.728-1.9-1.541-2.427a1.841,1.841,0,0,0-2.285.531,2.878,2.878,0,0,0-.231.3,3.246,3.246,0,0,1-.064-1.244c0-.1.021-.209.03-.3a6.068,6.068,0,0,0,3.289-2.6v.018l.036.094c.088.221.228.434.434.458h0a.607.607,0,0,0,.376-.137,3.116,3.116,0,0,0,.5-.437q.115-.127.218-.264a3.433,3.433,0,0,0,.358-.607,3.606,3.606,0,0,0,.3-1.016c.055-.352.061-.713.121-1.065a6.557,6.557,0,0,1,.221-.8c.03-.088.061-.176.088-.264s.067-.206.1-.3a7.03,7.03,0,0,0,.3-1.924V246a3.2,3.2,0,0,0-1.019-2.26c-.522-.428-1.214-.607-1.6-1.186a5.647,5.647,0,0,1-.449-1.344,3.034,3.034,0,0,0-2.385-2.145,2.655,2.655,0,0,0-1.887.519h0l-.042.033h0a3.034,3.034,0,0,0-.752.837,2.5,2.5,0,0,1-1.068-.607c-.3-.282-.537-.637-.844-.91a2.169,2.169,0,0,0-2.16-.455,2.582,2.582,0,0,0-1.544,1.769,6.166,6.166,0,0,1-.485,1.866c-.27.407-.713.607-1.022.977a1.839,1.839,0,0,0-.382.81h0a2.2,2.2,0,0,0-.052.507h0a.924.924,0,0,0,.018.225v.036a1.6,1.6,0,0,0,.052.246h0a2.123,2.123,0,0,0,.452.831,2,2,0,0,0,.731.528,2.96,2.96,0,0,0,.352.112l.361.082.127.03a6.05,6.05,0,0,0-.17,5.343,2.433,2.433,0,0,1-.03.255,20.982,20.982,0,0,0,.158,3.577,1.92,1.92,0,0,1-.221,1.362,2.585,2.585,0,0,1-.44.391c.164-.212.331-.422.5-.631a2.164,2.164,0,0,0-1.711-.443,7.928,7.928,0,0,0-3.337,1.019,3.736,3.736,0,0,1-2.154.819c-.458-.052-.91-.3-1.356-.182a2.749,2.749,0,0,0-.695.413.94.94,0,0,1-.57.176,12.316,12.316,0,0,0-1.784-1.459,14.053,14.053,0,0,1-1.775-1.9c-.983-1.186-1.963-2.376-2.928-3.574a6.883,6.883,0,0,1-1.79-3.386,3.331,3.331,0,0,1-.021-.385,9.8,9.8,0,0,1,.231-1.82.91.91,0,0,0,0-.44c-.091-.3-.44-.416-.74-.482h0c.039-.234.067-.473.082-.7.17-2.609-.015-5.261.537-7.816a5.313,5.313,0,0,1,1.259-2.691c1.107-1.12,2.961-1.39,3.811-2.715a3.1,3.1,0,0,0-.464-3.641,4.6,4.6,0,0,0-3.574-1.323,1.845,1.845,0,0,0-1.041.279,2.212,2.212,0,0,0-.631.959l-1.3,3.165a19.142,19.142,0,0,0-.953,2.543c-.364,1.329-.446,2.731-.734,4.072a10.588,10.588,0,0,1-1.029,3.268c-.407,1.068-.846,2.124-1.214,3.213-.091.273-.41,1.083-.607,1.82a1.11,1.11,0,0,0-.206.155,5.5,5.5,0,0,0-.431.64c-.276.364-.725.558-1.029.91s-.367,1,.055,1.174a1.239,1.239,0,0,0,.264.058.861.861,0,0,1,.731,1.2c-.067.473-.3.91-.343,1.384a3.734,3.734,0,0,0,.883,2.321,20.006,20.006,0,0,0,1.62,2.181c.428.479.91.91,1.341,1.371,1.641,1.687,2.946,3.659,4.421,5.492a12.174,12.174,0,0,0,1.8,1.887,13.551,13.551,0,0,0,1.362.938l2.536,1.608a2.78,2.78,0,0,0,.959.452,1.275,1.275,0,0,0,.34,0c.015.076.027.149.045.225a13.351,13.351,0,0,1,.68,2.327c.049.81-.024,1.638.033,2.458.055.755.221,1.517.264,2.26a14.527,14.527,0,0,1-.607,4.248,25.332,25.332,0,0,1-1.82,6,3.531,3.531,0,0,0-.607,1.62.839.839,0,0,0,.018.212h0l-.455.258c-.134.076-.267.152-.388.231a3.247,3.247,0,0,0-1.429,1.441c-.191.525-.1,1.126-.334,1.635a.728.728,0,0,1-.036.067c-.243.473-.725.825-.834,1.344h0c-.082.4.076.819,0,1.214v.015a4.39,4.39,0,0,0-.164.607.725.725,0,0,0,.018.2,1.156,1.156,0,0,0,.364.592,2.426,2.426,0,0,0,.355.282q.194.127.4.237l.079.042c.115.061.231.118.349.173l.079.033c.137.061.276.115.416.164l.1.03c.109.036.221.07.334.1l.076.024.07.015.3.064.112.021q.2.033.41.055h.121c.1,0,.2.015.3.018h.555a3.4,3.4,0,0,0,.428-.039h.046c.127-.018.255-.039.382-.067l.1-.021c.118-.027.237-.055.355-.091l.064-.018c.143-.042.285-.088.425-.143a11.154,11.154,0,0,0,1.4-.695c.3-.167.607-.337.91-.491a7.062,7.062,0,0,1,.692-.3,3.9,3.9,0,0,1,1.82-.3,7.121,7.121,0,0,1,.91.185q0,.05,0,.1.37,2.185.731,4.369a8.891,8.891,0,0,1,1.256-.755,2.792,2.792,0,0,0-.161.683,2.705,2.705,0,0,0,0,.543,1.179,1.179,0,0,1-.085.834c-.106.14-.3.218-.361.376a1.283,1.283,0,0,0-.03.495.789.789,0,0,1-.722.734,1.153,1.153,0,0,1-.458,1.353,1.6,1.6,0,0,0-.352.231,1.05,1.05,0,0,0-.2.458,8.108,8.108,0,0,1-2.376,3.9,7.635,7.635,0,0,0-1.174,1.147,5.219,5.219,0,0,0-.531,1.047q-1.214,2.967-2.464,5.938a13.176,13.176,0,0,0-1.056,3.425c-.364,3.271-3.277,6.044-2.731,9.29a4.552,4.552,0,0,0,.947,2.218,5.583,5.583,0,0,0,2.427,1.49,44.187,44.187,0,0,0,7.263,1.908l3.859.792a16.868,16.868,0,0,0,2.3.364,15.053,15.053,0,0,1,2.794.212,8.674,8.674,0,0,0,1.678.446c.5.027,1.11-.079,1.4.328s.067.944.346,1.3c.449.573,1.544,0,2.033.54a2.515,2.515,0,0,1,.3.671,1.213,1.213,0,0,0,.3.382,2.566,2.566,0,0,1,.036.519,8.949,8.949,0,0,1-.437,2.069q-.546,1.848-1.089,3.7a8.2,8.2,0,0,0-.3,1.335,3.211,3.211,0,0,0,0,.661,1.817,1.817,0,0,0,1.089,1.581,2,2,0,0,0,1.475-.182,6.518,6.518,0,0,0,1.214-.819,8.285,8.285,0,0,0,1.751-1.8c1.517-2.269,1.026-5.34,2.09-7.849.707-1.675,2.084-3.034,2.543-4.8a1.92,1.92,0,0,0,.036-1.038,2.15,2.15,0,0,0-1.441-1.171h-.027a12.442,12.442,0,0,0-1.517-.434c-.127-.027-.258-.048-.388-.07a2.382,2.382,0,0,1-.671-.874,2.034,2.034,0,0,0-.143-.525.546.546,0,0,0-.437-.243c-.3-.03-.71.079-1.041.055-.677-.049-1.126-.713-1.732-1.019a3.537,3.537,0,0,0-1.911-.185,1.768,1.768,0,0,1-.692-.042,2.6,2.6,0,0,1-.728-.5,3.052,3.052,0,0,0-2.673-.537,2.913,2.913,0,0,1-.91.206c-.592-.033-1.01-.561-1.447-.962-1.2-1.1-2.9-1.384-4.348-2.1a.992.992,0,0,1-.522-.449c-.167-.413.209-.825.549-1.107l2.494-2.072c2.731-2.269,6.144-3.978,7.412-7.306a4.225,4.225,0,0,1,.607-1.247,1.693,1.693,0,0,1,.337-.3,2.549,2.549,0,0,1,1.866-.364,6.3,6.3,0,0,1,2.2.959q1.629.986,3.171,2.124a28.054,28.054,0,0,1,2.9,2.379c1.593,1.517,2.919,3.316,4.4,4.952a14.142,14.142,0,0,0,5.24,3.944,6.743,6.743,0,0,0,6.32-.564c2.042-1.517,2.7-4.229,3.213-6.717,1.138-1.1,1.481-2.77,2.036-4.248.349-.937.795-1.82,1.171-2.755.449-1.1.8-2.233,1.153-3.365a16.184,16.184,0,0,0,.807-3.51c.146-1.89-.361-3.9.17-5.677a20.939,20.939,0,0,0,2.027-.78,10.042,10.042,0,0,1,3.21-.276h.07a1.657,1.657,0,0,0,1.068-.252,1.7,1.7,0,0,0,.44-1.293C785.922,294.284,785.849,292.98,784.978,292.227Zm-43.96-51.755a2.254,2.254,0,0,1-.768.055Z" transform="translate(-501.527 -195.153)" fill="url(#linear-gradient)"/>
    <path id="Path_1185" data-name="Path 1185" d="M795.523,316.111a3.338,3.338,0,0,1-1.262.671l-2.151.771a8.015,8.015,0,0,1-3.62.689c-.689-.085-3.641-.519-4.087-1.056-.68-.831,1.7-2.054,2.515-2.755a3.439,3.439,0,0,0,.51-.449,1.829,1.829,0,0,0,.221-1.356,20.936,20.936,0,0,1-.158-3.571,7.207,7.207,0,0,1,.121-.846c.3-1.4,1.6-.886,2.627-.516a20.545,20.545,0,0,1,3.565,1.544,2.558,2.558,0,0,1,.88.746,3.793,3.793,0,0,1,.2,2.427,2.273,2.273,0,0,0,.355,1.784,4.6,4.6,0,0,1,.573.607A1.138,1.138,0,0,1,795.523,316.111Z" transform="translate(-554.837 -251.598)" fill="#be6f72"/>
    <path id="Path_1186" data-name="Path 1186" d="M716.514,239.144c.3-1.344.37-2.731.734-4.063a19.024,19.024,0,0,1,.953-2.533l1.338-3.122a2.2,2.2,0,0,1,.631-.956,1.869,1.869,0,0,1,1.041-.279,4.636,4.636,0,0,1,3.574,1.32,3.064,3.064,0,0,1,.464,3.62c-.85,1.326-2.7,1.593-3.811,2.709a5.305,5.305,0,0,0-1.259,2.685c-.552,2.549-.367,5.191-.537,7.794a2.585,2.585,0,0,1-.91,2.154,2.655,2.655,0,0,1-1.359.264l-1.99.033c-.334,0-1.544.209-1.766-.042-.388-.44.5-2.631.658-3.119.358-1.083.8-2.139,1.214-3.2A10.655,10.655,0,0,0,716.514,239.144Z" transform="translate(-505.543 -196.497)" fill="#be6f72"/>
    <path id="Path_1187" data-name="Path 1187" d="M835.472,572.178c-.458,1.754-1.836,3.119-2.542,4.791-1.065,2.5-.586,5.564-2.091,7.828a8.269,8.269,0,0,1-1.751,1.805,6.5,6.5,0,0,1-1.214.816,2,2,0,0,1-1.475.182,1.816,1.816,0,0,1-1.089-1.578,3.182,3.182,0,0,1,0-.658,8.16,8.16,0,0,1,.3-1.332q.546-1.842,1.089-3.689a8.928,8.928,0,0,0,.437-2.063c.039-.765-.446-1.76-.24-2.473.094-.322.446-.607.607-.877a5.076,5.076,0,0,0,.522-1.241,7.714,7.714,0,0,1,.941-2.464,5.782,5.782,0,0,1,1.183-1.107,3.137,3.137,0,0,1,1.129-.634,2.764,2.764,0,0,1,1.214.058,11.9,11.9,0,0,1,1.517.431h.027a2.124,2.124,0,0,1,1.441,1.168A1.908,1.908,0,0,1,835.472,572.178Z" transform="translate(-583.405 -434.214)" fill="#3f3d56"/>
    <path id="Path_1188" data-name="Path 1188" d="M928.035,443.206a1.681,1.681,0,0,1-.44,1.289,1.656,1.656,0,0,1-1.068.252h-.082a10.226,10.226,0,0,0-3.21.276,12.139,12.139,0,0,1-2.309.825,5.634,5.634,0,0,1-3.165-1.019,31.482,31.482,0,0,0-2.873-1.365c-.643-.264-1.957-.434-2.266-1.138a10.361,10.361,0,0,1-.267-1.013,3.374,3.374,0,0,0-.185-.446,2.564,2.564,0,0,1-.34-1,1.551,1.551,0,0,1,.346-.971,2.91,2.91,0,0,1,1.987-1.022,8.8,8.8,0,0,1,2.288.121l7.47,1.074a17.49,17.49,0,0,1,1.723.3,3.38,3.38,0,0,1,1.481.649C928.008,440.758,928.08,442.059,928.035,443.206Z" transform="translate(-643.686 -342.542)" fill="#3f3d56"/>
    <path id="Path_1189" data-name="Path 1189" d="M806.283,451.149c-.91,1.921-.255,4.193-.419,6.317a16.1,16.1,0,0,1-.807,3.5c-.352,1.129-.7,2.26-1.153,3.356-.376.91-.822,1.82-1.171,2.749-.555,1.481-.91,3.146-2.036,4.248-.516,2.482-1.171,5.194-3.213,6.7a6.725,6.725,0,0,1-6.32.564,14.141,14.141,0,0,1-5.24-3.944c-1.484-1.635-2.81-3.416-4.4-4.939a27.6,27.6,0,0,0-2.9-2.376q-1.541-1.12-3.171-2.106a6.351,6.351,0,0,0-2.2-.956,2.548,2.548,0,0,0-1.866.364,1.692,1.692,0,0,0-.337.3,4.175,4.175,0,0,0-.607,1.244c-1.274,3.319-4.694,5.024-7.424,7.288l-2.494,2.066c-.34.282-.716.695-.549,1.1a.992.992,0,0,0,.522.449c1.45.716,3.152,1,4.348,2.1.437.4.856.928,1.447.959a2.906,2.906,0,0,0,.91-.2,3.061,3.061,0,0,1,2.673.534,2.6,2.6,0,0,0,.728.5,1.769,1.769,0,0,0,.692.042,3.693,3.693,0,0,1,1.911.185c.58.288,1.056.968,1.732,1.016.331.024.725-.085,1.041-.055a.546.546,0,0,1,.437.243,2.012,2.012,0,0,1,.143.522c.124.428.543.689.816,1.041a2.875,2.875,0,0,1,.437,1.957,8.35,8.35,0,0,1-2.658,5.589,3.289,3.289,0,0,1-1.635.91,1.517,1.517,0,0,1-1.62-.719,2.493,2.493,0,0,0-.3-.668c-.489-.537-1.584.033-2.033-.54-.279-.358-.079-.931-.346-1.3s-.91-.3-1.4-.325a8.9,8.9,0,0,1-1.678-.446,15.07,15.07,0,0,0-2.794-.212,16.86,16.86,0,0,1-2.3-.364l-3.859-.789a45.742,45.742,0,0,1-7.264-1.9,5.845,5.845,0,0,1-2.427-1.487,4.551,4.551,0,0,1-.947-2.215c-.549-3.237,2.364-6,2.731-9.266a13,13,0,0,1,1.056-3.416q1.235-2.961,2.464-5.926a5.276,5.276,0,0,1,.516-1.05,7.618,7.618,0,0,1,1.174-1.144,8.08,8.08,0,0,0,2.376-3.9,1.05,1.05,0,0,1,.2-.458,1.705,1.705,0,0,1,.352-.228,1.153,1.153,0,0,0,.458-1.35.789.789,0,0,0,.722-.734,1.268,1.268,0,0,1,.03-.491c.073-.158.255-.237.361-.376a1.173,1.173,0,0,0,.085-.831,2.71,2.71,0,0,1,0-.543,2.788,2.788,0,0,1,.813-1.7c.725-.713,1.757-.528,2.758-.7a15.8,15.8,0,0,0,2.913-.931,28.614,28.614,0,0,1,8.225-1.9,17.958,17.958,0,0,1,8.307,1.323,4.722,4.722,0,0,1,1.071.607,2.029,2.029,0,0,1,.561.671,6.251,6.251,0,0,0,.413.931c.325.443.938.586,1.293,1s.385,1.126.68,1.644c.422.74,1.4,1.083,1.69,1.887.091.255.1.534.17.8a4.565,4.565,0,0,0,1.089,1.705,13.11,13.11,0,0,1,2.937,6.675,5.077,5.077,0,0,1,2.427-3.75c.349-.228.752-.479.822-.892.088-.522-.419-.986-.385-1.517a1.486,1.486,0,0,1,.3-.71,22.444,22.444,0,0,1,1.9-2.388c.373-.41.792-.91.637-1.45-.118-.4-.531-.64-.758-.992a1.262,1.262,0,0,1,.03-1.4c.212-.288.549-.5.652-.84.118-.4-.146-.84-.064-1.256a1.553,1.553,0,0,1,.625-.81,3.822,3.822,0,0,1,3.9-.965c1.42.2,3.013.5,3.814,1.69A2.878,2.878,0,0,1,806.283,451.149Z" transform="translate(-528.499 -348.543)" fill="#65617d"/>
    <path id="Path_1190" data-name="Path 1190" d="M928.014,443.206a1.681,1.681,0,0,1-.44,1.289,1.656,1.656,0,0,1-1.068.252h-.082c.124-.631.892-.992,1.025-1.632a1.444,1.444,0,0,0-.334-1.1,5.469,5.469,0,0,0-2.731-1.717,18.089,18.089,0,0,0-9.12-.683,9.184,9.184,0,0,0-2.4.737,7.814,7.814,0,0,0-.728.516,2.563,2.563,0,0,1-.34-1,1.551,1.551,0,0,1,.346-.971,2.91,2.91,0,0,1,1.987-1.022,8.8,8.8,0,0,1,2.288.121l7.47,1.074c.576.082,1.156.164,1.723.3a3.38,3.38,0,0,1,1.481.649C927.987,440.758,928.06,442.059,928.014,443.206Z" transform="translate(-643.665 -342.542)" opacity="0.1"/>
    <path id="Path_1191" data-name="Path 1191" d="M835.472,573.417c-.458,1.754-1.836,3.119-2.542,4.791-1.065,2.5-.586,5.564-2.091,7.828a8.269,8.269,0,0,1-1.751,1.805,6.5,6.5,0,0,1-1.214.816,2,2,0,0,1-1.475.182,1.816,1.816,0,0,1-1.089-1.578,3.182,3.182,0,0,1,0-.658l.018.049c.264.637.695,1.3,1.374,1.417a1.86,1.86,0,0,0,1.4-.495,8.665,8.665,0,0,0,2.139-3.158,13.135,13.135,0,0,0,1.026-2.618c.121-.516.179-1.044.3-1.559.576-2.506,2.539-4.551,2.973-7.091a1.731,1.731,0,0,0,.024-.531,2.683,2.683,0,0,0-.261-.661,3.275,3.275,0,0,1-.231-.734,2.124,2.124,0,0,1,1.441,1.168A1.909,1.909,0,0,1,835.472,573.417Z" transform="translate(-583.405 -435.452)" opacity="0.1"/>
    <path id="Path_1192" data-name="Path 1192" d="M799.838,523.4a4.4,4.4,0,0,1-1.368,1.869,6.676,6.676,0,0,1-2.946,1.274,2.931,2.931,0,0,1-1.517-.018c-.674-.234-1.159-.865-1.848-1.047a12.633,12.633,0,0,0-1.517-.088,5.383,5.383,0,0,1-2.312-1.353c-2.212-1.663-5.115-2.2-7.327-3.862a.679.679,0,0,1-.237-.246.731.731,0,0,1-.045-.343,6.978,6.978,0,0,1,.664-2.916,10.177,10.177,0,0,1,1.25-1.781,54.038,54.038,0,0,1,6.344-6.921,9.614,9.614,0,0,1,3.337-2.048,5,5,0,0,1,2.925-.055,1.693,1.693,0,0,0-.337.3,4.175,4.175,0,0,0-.607,1.244c-1.277,3.322-4.7,5.027-7.427,7.291l-2.494,2.066c-.34.282-.716.695-.549,1.1a.992.992,0,0,0,.522.449c1.45.716,3.152,1,4.348,2.1.437.4.856.928,1.447.959a2.906,2.906,0,0,0,.91-.2,3.061,3.061,0,0,1,2.673.534,2.6,2.6,0,0,0,.728.5,1.769,1.769,0,0,0,.692.042,3.693,3.693,0,0,1,1.911.185c.58.288,1.056.968,1.732,1.016C799.128,523.483,799.522,523.368,799.838,523.4Z" transform="translate(-552.352 -389.791)" opacity="0.1"/>
    <path id="Path_1193" data-name="Path 1193" d="M745.33,402.925a3.221,3.221,0,0,0-1.426,1.432c-.194.525-.1,1.126-.337,1.635s-.758.865-.874,1.411c-.082.4.079.816,0,1.214a5.225,5.225,0,0,0-.167.631c-.03.452.358.819.737,1.071a6.159,6.159,0,0,0,5.513.607,24.9,24.9,0,0,0,2.318-1.186,4.585,4.585,0,0,1,2.5-.607c.5.055.98.237,1.481.3a1.553,1.553,0,0,0,1.387-.413,1.73,1.73,0,0,0,.3-.719,10.746,10.746,0,0,0-.17-5.106c-.4-1.675-1.007-3.286-1.435-4.952a22.721,22.721,0,0,0-1.044-3.668,4.813,4.813,0,0,0-2.552-2.7.476.476,0,0,0-.3-.039.516.516,0,0,0-.2.146,9.33,9.33,0,0,0-2.081,3.5c-.476,1.453-.607,2.995-1.044,4.454a4.561,4.561,0,0,1-.91,1.884A10.4,10.4,0,0,1,745.33,402.925Z" transform="translate(-525.748 -310.489)" fill="#3f3d56"/>
    <path id="Path_1194" data-name="Path 1194" d="M756.785,408.246a1.769,1.769,0,0,1-.319.719,1.538,1.538,0,0,1-1.387.41c-.5-.061-.977-.246-1.478-.3a4.575,4.575,0,0,0-2.5.607c-.777.388-1.517.871-2.321,1.183a6.126,6.126,0,0,1-3.68.209,5.938,5.938,0,0,1-1.82-.8,1.305,1.305,0,0,1-.737-1.071,5.189,5.189,0,0,1,.167-.628c.079-.4-.079-.816,0-1.214.115-.546.643-.91.874-1.414s.143-1.107.334-1.632a3.235,3.235,0,0,1,1.429-1.435,10.9,10.9,0,0,0,1.723-1.11,1.712,1.712,0,0,0,.161-.224,5.463,5.463,0,0,0,.722-1.672c.446-1.462.567-3,1.041-4.457a9.347,9.347,0,0,1,2.084-3.5.458.458,0,0,1,.194-.146.485.485,0,0,1,.3.036,4.848,4.848,0,0,1,2.552,2.7,23.882,23.882,0,0,1,1.044,3.665c.425,1.666,1.035,3.283,1.435,4.955A10.8,10.8,0,0,1,756.785,408.246Z" transform="translate(-525.762 -310.44)" opacity="0.1"/>
    <path id="Path_1195" data-name="Path 1195" d="M802.251,312.422a6.068,6.068,0,0,1-7.391-3.337,7.206,7.206,0,0,1,.121-.846c.3-1.4,1.6-.886,2.627-.516a20.542,20.542,0,0,1,3.565,1.544,2.557,2.557,0,0,1,.88.746A3.738,3.738,0,0,1,802.251,312.422Z" transform="translate(-562.205 -251.619)" opacity="0.1"/>
    <circle id="Ellipse_185" data-name="Ellipse 185" cx="6.068" cy="6.068" r="6.068" transform="translate(232.145 48.648)" fill="#be6f72"/>
    <path id="Path_1196" data-name="Path 1196" d="M812.106,448.625c0,.5-.683.664-1.189.637-1.82-.106-3.6-.607-5.4-.455-2.279.206-4.372,1.465-6.657,1.581a20.176,20.176,0,0,0-2.643.076c-1.123.209-2.124.892-3.268.989-.992.085-1.972-.288-2.964-.249a4.763,4.763,0,0,0-1.981.564,2.789,2.789,0,0,1,.813-1.7c.725-.713,1.757-.528,2.758-.7a15.8,15.8,0,0,0,2.913-.931,28.614,28.614,0,0,1,8.225-1.9,17.959,17.959,0,0,1,8.3,1.314,4.724,4.724,0,0,1,1.071.607.477.477,0,0,1,.021.164Z" transform="translate(-557.426 -348.561)" opacity="0.1"/>
    <path id="Path_1197" data-name="Path 1197" d="M781.277,333.929l-2.458-.91-1.038-.382a5.019,5.019,0,0,0-1.323-.352A3.368,3.368,0,0,0,773.516,334a9.245,9.245,0,0,0-1.077,3.389q-.419,2.409-.71,4.836a31.594,31.594,0,0,0-.319,4.412,52.259,52.259,0,0,0,1.739,11.117,39.094,39.094,0,0,1,.968,4.93c.073.686.106,1.374.179,2.063.079.774.206,1.538.334,2.306l.731,4.36a5.764,5.764,0,0,1,3.064-1.247c.992-.036,1.975.334,2.964.249,1.138-.094,2.145-.777,3.268-.986a19.694,19.694,0,0,1,2.646-.076c2.282-.115,4.378-1.377,6.654-1.581,1.805-.164,3.6.346,5.407.452.5.03,1.186-.13,1.186-.637,0-.352-.352-.586-.658-.762a32.466,32.466,0,0,1-4.111-2.934,13.881,13.881,0,0,1-3.231-3.2c-1.981-3.08-1.3-7.245-2.992-10.495-1.374-2.64,0-6.1,0-9.075a13.8,13.8,0,0,0-1.162-6.793l-1.18-2.989a.489.489,0,0,0-.14-.228.464.464,0,0,0-.27-.082,2.846,2.846,0,0,0-1.96.628c-.555.452-.91,1.1-1.456,1.572A2.216,2.216,0,0,1,781.277,333.929Z" transform="translate(-545.87 -268.132)" fill="#e3e8f4"/>
    <path id="Path_1198" data-name="Path 1198" d="M810.034,327.832a5.384,5.384,0,0,1,.959-2.345,1.844,1.844,0,0,1,2.285-.528c.813.528.846,1.748,1.541,2.427a3.739,3.739,0,0,0,2.342.7,15.884,15.884,0,0,1,4.33,1.019,1.769,1.769,0,0,1,.719.431c.379.431.3,1.092.491,1.629.258.692.971,1.132,1.247,1.82a3.63,3.63,0,0,1-.255,2.406c-.458,1.411-.746,2.876-1.192,4.293a9.558,9.558,0,0,1-2.124,3.881c-.461.473-1.147.91-1.754.628l-.234,1.684a2.859,2.859,0,0,0,0,1.077.965.965,0,0,0,.7.746c.046.261.322.385.546.528a1.517,1.517,0,0,1,.385,2.124c-.191.258-.473.461-.564.768a1.091,1.091,0,0,0,.583,1.153c.394.243.859.355,1.259.589a3.915,3.915,0,0,1,1.563,2.339,4.336,4.336,0,0,0,.91,1.945c.2.191.44.337.631.537a2.3,2.3,0,0,1,.543,1.393,2.764,2.764,0,0,1-.394,1.82c-.607.868-1.738,1.126-2.731,1.517a23.011,23.011,0,0,0-4.357,2.852,4.649,4.649,0,0,1-1.987.934,17.405,17.405,0,0,1-2.94-.343,7.3,7.3,0,0,0-1.754.231l-1.82.394c.1-1.411-.68-2.825-1.113-4.169a20.716,20.716,0,0,1-.777-7.889,61.8,61.8,0,0,1,1.268-7.87c.373-1.82.337-3.723.91-5.492a36.184,36.184,0,0,0,1.587-5.109C811.3,333.09,809.385,330.659,810.034,327.832Z" transform="translate(-570.662 -263.758)" fill="#3f3d56"/>
    <path id="Path_1199" data-name="Path 1199" d="M851.895,352.421a3.338,3.338,0,0,1,.349.986,3.559,3.559,0,0,0,.768,1.444,4.972,4.972,0,0,1,.807.91,6.8,6.8,0,0,1,.3,1.748,14.041,14.041,0,0,1,.655,1.82,3.331,3.331,0,0,0,.052.552c.2.734,1.277.91,1.517,1.644.161.476-.115,1-.064,1.5a1.315,1.315,0,0,1,.027.473.962.962,0,0,1-.346.443,6.978,6.978,0,0,0-2,3.553,20.232,20.232,0,0,0-.458,4.105l-1.186-1.569a1.8,1.8,0,0,0-.473-.485c-.152-.091-.328-.137-.482-.228a2.2,2.2,0,0,1-.8-1.28,11.833,11.833,0,0,0-2.124-3.677,4.013,4.013,0,0,1-1.15-1.875,3.452,3.452,0,0,1,.055-1.013,17.279,17.279,0,0,1,1.6-5.786c.452-.825,1.038-1.572,1.471-2.409C850.709,352.718,851.118,351.274,851.895,352.421Z" transform="translate(-598.721 -282.738)" fill="#3f3d56"/>
    <path id="Path_1200" data-name="Path 1200" d="M724.764,310.743a1.387,1.387,0,0,1-.188.728.959.959,0,0,1-.959.3,2.773,2.773,0,0,1-.959-.449q-1.268-.8-2.536-1.605a14.042,14.042,0,0,1-1.362-.934,12.16,12.16,0,0,1-1.8-1.884c-1.475-1.82-2.779-3.8-4.421-5.461-.446-.455-.91-.892-1.341-1.368a19.966,19.966,0,0,1-1.62-2.178,3.711,3.711,0,0,1-.883-2.315c.049-.473.276-.91.343-1.38a.86.86,0,0,0-.731-1.2,1.24,1.24,0,0,1-.264-.058c-.422-.176-.358-.828-.055-1.171s.752-.534,1.029-.91a5.48,5.48,0,0,1,.431-.64,1.641,1.641,0,0,1,.707-.355,10.941,10.941,0,0,1,5.385-.2c.3.067.649.188.74.482a.89.89,0,0,1,0,.437,9.762,9.762,0,0,0-.231,1.82,3.226,3.226,0,0,0,.021.382,6.864,6.864,0,0,0,1.79,3.38c.965,1.2,1.945,2.382,2.928,3.565a14.01,14.01,0,0,0,1.775,1.9,10.127,10.127,0,0,1,1.866,1.556,3.406,3.406,0,0,1,.3,1.863A41.361,41.361,0,0,1,724.764,310.743Z" transform="translate(-501.52 -239.151)" fill="#3f3d56"/>
    <path id="Path_1201" data-name="Path 1201" d="M879.242,350.126a6.37,6.37,0,0,0,.807-.956,6.3,6.3,0,0,0,.607-1.356l1.76-4.991c.279-.789.558-1.581.91-2.348.364-.828.795-1.626,1.192-2.427a32.378,32.378,0,0,0,2.357-6.6,2.446,2.446,0,0,0,.094-.968,2.544,2.544,0,0,0-.862-1.308,6.308,6.308,0,0,0-1.293-1.068,2.124,2.124,0,0,0-1.62-.261,2.341,2.341,0,0,0-1.444,1.82,18.992,18.992,0,0,0-.188,2.427c-.109,1.165-.51,2.291-.607,3.459-.052.677,0,1.359-.082,2.033a7.424,7.424,0,0,1-.91,2.509,16.291,16.291,0,0,1-3.923,4.824,6.308,6.308,0,0,0-1.177,1.132,3.693,3.693,0,0,0-.567,1.414,3.256,3.256,0,0,0,.246,2.3,3.372,3.372,0,0,0,2.351,1.4C878.119,351.415,878.4,351,879.242,350.126Z" transform="translate(-617.466 -265.876)" fill="#be6f72"/>
    <path id="Path_1202" data-name="Path 1202" d="M796.093,270.1a2.831,2.831,0,0,1,2.749-1.49,3.034,3.034,0,0,1,2.385,2.142,5.537,5.537,0,0,0,.449,1.341c.376.586,1.074.755,1.6,1.18a3.2,3.2,0,0,1,1.019,2.257,6.83,6.83,0,0,1-.4,2.552,8.114,8.114,0,0,0-.3,1.068c-.061.352-.067.71-.121,1.062a3.459,3.459,0,0,1-1.393,2.3.607.607,0,0,1-.376.137c-.237-.027-.382-.3-.47-.552-.482-1.393-.367-3.095-1.256-4.205a4.6,4.6,0,0,0-1.438-1.071,1.854,1.854,0,0,0-.734-.276,1.933,1.933,0,0,0-1.062.388,6.611,6.611,0,0,1-2.1.928,2.579,2.579,0,0,1-2.169-.467c-.419-.346-.725-.865-1.189-1.135a9.158,9.158,0,0,0-1.408-.44,2.084,2.084,0,0,1-.843-3.18c.3-.364.752-.57,1.022-.974a6.145,6.145,0,0,0,.485-1.863,2.564,2.564,0,0,1,1.544-1.763,2.169,2.169,0,0,1,2.16.452c.3.273.546.625.844.91a2.427,2.427,0,0,0,2.245.607" transform="translate(-557.844 -224.175)" fill="#3f3d56"/>
    <path id="Path_1203" data-name="Path 1203" d="M828.835,419.787a1.177,1.177,0,0,0-.322,1.286,28.416,28.416,0,0,0,3.529-.507c.825-.118,2.272-.061,2.828-.816.989-1.338-2.075-1.041-2.637-.992C831.165,418.849,829.648,418.995,828.835,419.787Z" transform="translate(-585.597 -329.205)" opacity="0.1"/>
    <path id="Path_1204" data-name="Path 1204" d="M716.323,290.594a9.762,9.762,0,0,0-.231,1.82,5.3,5.3,0,0,1-2.731-.422l-2.509-.856a.713.713,0,0,0-.959.179A21.234,21.234,0,0,1,708.377,293a1.24,1.24,0,0,1-.264-.058c-.422-.176-.358-.828-.055-1.171s.752-.534,1.029-.91a5.488,5.488,0,0,1,.431-.64,1.641,1.641,0,0,1,.707-.355,10.941,10.941,0,0,1,5.385-.2c.3.067.649.188.74.482A.889.889,0,0,1,716.323,290.594Z" transform="translate(-501.569 -239.151)" fill="#3f3d56"/>
    <path id="Path_1205" data-name="Path 1205" d="M716.323,290.594a9.762,9.762,0,0,0-.231,1.82,5.3,5.3,0,0,1-2.731-.422l-2.509-.856a.713.713,0,0,0-.959.179A21.234,21.234,0,0,1,708.377,293a1.24,1.24,0,0,1-.264-.058c-.422-.176-.358-.828-.055-1.171s.752-.534,1.029-.91a5.488,5.488,0,0,1,.431-.64,1.641,1.641,0,0,1,.707-.355,10.941,10.941,0,0,1,5.385-.2c.3.067.649.188.74.482A.889.889,0,0,1,716.323,290.594Z" transform="translate(-501.569 -239.151)" opacity="0.1"/>
    <path id="Path_1206" data-name="Path 1206" d="M797.7,480.413a1.514,1.514,0,0,1,1.059.795l-3.513-.892-1.82-.464c-.322-.082-1.475-.176-1.687-.428-.3-.37.774-.115.968-.088.589.088,1.177.179,1.763.285C795.572,479.818,796.634,480.143,797.7,480.413Z" transform="translate(-559.992 -371.369)" opacity="0.1"/>
    <path id="Path_1207" data-name="Path 1207" d="M799.161,487.772a6.57,6.57,0,0,0-1.547-.267c-.546-.13-1.083-.3-1.62-.47-1.089-.355-2.169-.758-3.289-1.019-.206-.046-.91-.058-.877-.319s.7-.352.871-.364a8.6,8.6,0,0,1,3.152.722A13.9,13.9,0,0,1,799.161,487.772Z" transform="translate(-560.092 -375.618)" opacity="0.1"/>
    <path id="Path_1208" data-name="Path 1208" d="M798.615,469.7a23.3,23.3,0,0,0-3.271-1.129,1.329,1.329,0,0,1-.834-.255.983.983,0,0,1-.27-.485,5.653,5.653,0,0,1,2.357.592,7.418,7.418,0,0,1,1.1.589C797.957,469.167,798.339,469.613,798.615,469.7Z" transform="translate(-561.773 -363.431)" opacity="0.1"/>
    <path id="Path_1209" data-name="Path 1209" d="M869.986,384.46a5.306,5.306,0,0,0,3.72,5.865c-.149.719-.892,1.117-1.417,1.629-.74.719-1.123,1.8-2,2.342a4.453,4.453,0,0,1-3.337.115.407.407,0,0,1-.261-.137.372.372,0,0,1-.049-.118,7.808,7.808,0,0,1-.231-4.126,13.474,13.474,0,0,1,1.614-3.137C868.611,385.88,868.666,384.794,869.986,384.46Z" transform="translate(-611.917 -305.356)" fill="#3f3d56"/>
    <path id="Path_1210" data-name="Path 1210" d="M756.738,327.1a7.889,7.889,0,0,0-3.338,1.016,3.732,3.732,0,0,1-2.154.816c-.458-.052-.91-.3-1.356-.182a2.661,2.661,0,0,0-.695.413.786.786,0,0,1-.765.121l-.3,4.2a15.4,15.4,0,0,0,.155,4.782,13.4,13.4,0,0,1,.68,2.324c.049.807-.024,1.635.033,2.452.055.755.221,1.5.264,2.254a14.344,14.344,0,0,1-.607,4.226,25.149,25.149,0,0,1-1.82,5.986,3.532,3.532,0,0,0-.607,1.617.828.828,0,0,0,.018.212c-.3.167-.586.325-.843.488a3.234,3.234,0,0,0-1.429,1.435c-.191.525-.1,1.126-.334,1.632s-.758.868-.874,1.414c-.082.4.076.816,0,1.214a5.178,5.178,0,0,0-.167.628,1.318,1.318,0,0,0,.737,1.071,5.938,5.938,0,0,0,1.82.8l1.811-7.191h0a57.975,57.975,0,0,0,4.105-9.548,20.527,20.527,0,0,1,1.186-3.143,14.775,14.775,0,0,0,.91-1.784,13.44,13.44,0,0,0,.437-2.4,16.8,16.8,0,0,1,.713-2.77,11.887,11.887,0,0,0,.774-2.967c.1-1.462-.431-3.007.133-4.36a5.8,5.8,0,0,1,.925-1.393c.783-.959,1.5-1.963,2.279-2.922A2.105,2.105,0,0,0,756.738,327.1Z" transform="translate(-525.797 -265.39)" fill="#3f3d56"/>
    <g id="Group_689" data-name="Group 689" transform="translate(230.765 44.925)" opacity="0.1">
      <path id="Path_1211" data-name="Path 1211" d="M816.422,271.81l-.379.027-.042.03A2.238,2.238,0,0,0,816.422,271.81Z" transform="translate(-807.696 -271.81)"/>
      <path id="Path_1212" data-name="Path 1212" d="M804.3,288.063a8.178,8.178,0,0,1-.388,1.772,8.124,8.124,0,0,0-.3,1.068c-.061.352-.067.71-.121,1.062a3.459,3.459,0,0,1-1.393,2.3.607.607,0,0,1-.376.137c-.237-.027-.382-.3-.47-.552-.482-1.393-.367-3.095-1.256-4.205a4.6,4.6,0,0,0-1.438-1.071,1.855,1.855,0,0,0-.734-.276,1.932,1.932,0,0,0-1.062.388,6.61,6.61,0,0,1-2.1.928,2.579,2.579,0,0,1-2.169-.467c-.419-.346-.725-.865-1.189-1.135a9.161,9.161,0,0,0-1.408-.44,2.072,2.072,0,0,1-1.183-1.353.874.874,0,0,1-.024-.115,2.125,2.125,0,0,0,.024,1.026,2.072,2.072,0,0,0,1.183,1.353,10.229,10.229,0,0,1,1.408.44,11.476,11.476,0,0,1,1.189,1.135,2.579,2.579,0,0,0,2.169.467,6.611,6.611,0,0,0,2.1-.928,1.933,1.933,0,0,1,1.062-.388,1.854,1.854,0,0,1,.734.276,4.6,4.6,0,0,1,1.417,1.08c.889,1.11.774,2.813,1.256,4.205.088.252.234.525.47.552a.607.607,0,0,0,.4-.146,3.459,3.459,0,0,0,1.4-2.306c.055-.352.061-.71.121-1.062a8.114,8.114,0,0,1,.3-1.068,6.828,6.828,0,0,0,.4-2.552C804.311,288.148,804.3,288.106,804.3,288.063Z" transform="translate(-788.631 -281.764)"/>
    </g>
    <path id="Path_1213" data-name="Path 1213" d="M680.536,372.81l-.206,2.77a57.605,57.605,0,0,1-6.053,19.8,56.189,56.189,0,0,1-30.128,27.243q-1.957.774-4.063,1.444l-1.566-4.915a57.474,57.474,0,0,0,11.293-4.939,49.979,49.979,0,0,0,19.77-20.984,56.363,56.363,0,0,0,5.188-15.261H655.747V372.81Z" transform="translate(-453.299 -297.241)" fill="#0096d6"/>
    <path id="Path_1214" data-name="Path 1214" d="M645.388,422.64a56.177,56.177,0,0,0,30.125-27.24,57.488,57.488,0,0,0,6.053-19.8l.206-2.77H683.9l-.206,2.77a57.525,57.525,0,0,1-6.053,19.8,56.188,56.188,0,0,1-30.125,27.24q-1.957.774-4.066,1.447l-.206-.646Q644.338,423.05,645.388,422.64Z" transform="translate(-456.587 -297.255)" fill="#fff" opacity="0.1"/>
    <path id="Path_1215" data-name="Path 1215" d="M443.536,419.152l-1.566,4.915q-2.109-.674-4.066-1.447a56.177,56.177,0,0,1-30.125-27.24,57.488,57.488,0,0,1-6.053-19.8l-.206-2.77H426.3v5.158H407.27a56.4,56.4,0,0,0,5.2,15.261,49.947,49.947,0,0,0,19.767,20.98A57.346,57.346,0,0,0,443.536,419.152Z" transform="translate(-288.206 -297.241)" fill="#0096d6"/>
    <path id="Path_1216" data-name="Path 1216" d="M439.768,422.64a56.177,56.177,0,0,1-30.125-27.24,57.49,57.49,0,0,1-6.053-19.8l-.206-2.77H401.26l.206,2.77a57.525,57.525,0,0,0,6.053,19.8,56.188,56.188,0,0,0,30.125,27.24q1.957.774,4.066,1.447l.206-.646Q440.821,423.05,439.768,422.64Z" transform="translate(-288.025 -297.255)" fill="#fff" opacity="0.1"/>
    <path id="Path_1217" data-name="Path 1217" d="M552.163,599.952v27.813H494.92V599.952l1.82-2.427c18.55-6.584,22.309-23.754,23.059-30.547a27.916,27.916,0,0,0,.191-2.828h7.078a27.916,27.916,0,0,0,.191,2.828c.761,6.793,4.521,23.969,23.059,30.547Z" transform="translate(-353.268 -430.527)" fill="#0096d6"/>
    <rect id="Rectangle_690" data-name="Rectangle 690" width="57.243" height="3.489" transform="translate(141.652 169.425)" opacity="0.1"/>
    <path id="Path_1218" data-name="Path 1218" d="M499.775,597.525c18.55-6.584,22.309-23.754,23.059-30.547a27.916,27.916,0,0,0,.191-2.828H519.99a27.931,27.931,0,0,1-.191,2.828c-.762,6.793-4.521,23.969-23.059,30.547l-1.82,2.427v27.813h3.034V599.952Z" transform="translate(-353.268 -430.527)" fill="#fff" opacity="0.1"/>
    <path id="Path_1219" data-name="Path 1219" d="M466.26,372.81h5.134v5.158h-4.679Q466.439,375.419,466.26,372.81Z" transform="translate(-333.304 -297.241)" opacity="0.1"/>
    <path id="Path_1220" data-name="Path 1220" d="M514.066,514.2l-1.566,4.915q-2.109-.674-4.066-1.447a54.357,54.357,0,0,1-5.665-8.41,57.347,57.347,0,0,0,11.3,4.942Z" transform="translate(-358.737 -392.291)" opacity="0.1"/>
    <path id="Path_1221" data-name="Path 1221" d="M638.51,514.209A57.472,57.472,0,0,0,649.8,509.27a54.571,54.571,0,0,1-5.665,8.413q-1.957.774-4.063,1.444Z" transform="translate(-453.292 -392.298)" opacity="0.1"/>
    <path id="Path_1222" data-name="Path 1222" d="M700.461,372.81q-.179,2.609-.455,5.158H695.33V372.81Z" transform="translate(-492.873 -297.241)" opacity="0.1"/>
    <path id="Path_1223" data-name="Path 1223" d="M584.421,566.978a19.613,19.613,0,0,1-7.461,0,27.95,27.95,0,0,0,.191-2.828h7.078A27.932,27.932,0,0,0,584.421,566.978Z" transform="translate(-410.417 -430.527)" opacity="0.1"/>
    <path id="Path_1224" data-name="Path 1224" d="M468.26,344.65c.13,38.247,16.514,69.176,36.712,69.176s36.579-30.929,36.712-69.176Z" transform="translate(-334.697 -277.625)" fill="#0096d6"/>
    <path id="Path_1225" data-name="Path 1225" d="M474.783,344.65H468.26c.13,38.247,16.514,69.176,36.712,69.176a19.832,19.832,0,0,0,3.262-.276C489.562,410.431,474.908,380.816,474.783,344.65Z" transform="translate(-334.697 -277.625)" fill="#fff" opacity="0.1"/>
    <rect id="Rectangle_691" data-name="Rectangle 691" width="38.936" height="10.012" transform="translate(150.805 180.071)" fill="#3f3d56"/>
    <path id="Path_1226" data-name="Path 1226" d="M498.91,594.865h37.116V593.5H497.09v10.012h1.82Z" transform="translate(-346.285 -413.429)" fill="#fff" opacity="0.1"/>
    <path id="Path_1227" data-name="Path 1227" d="M245.707,351.5c-.7-.234-4.827-3.5-5.14-4.976s2.181-15.243,2.181-15.243a5.605,5.605,0,0,1-.607-.046v-.221l.513-18.083s2.1-12.136-1.869-11.429-1.481,11.429-1.481,11.429-.452,5.443-.771,7.075c-.3,1.575-1.693,7.989-.746,9.982a2.169,2.169,0,0,0,.115.206h0s.158,6.842-1.556,7.776c-1.635.889-2.315,5.364-2.373,5.765l-.088-.036h0a4.754,4.754,0,0,1-1.265-1.156c-.036-.046-.064-.094-.1-.143a6.682,6.682,0,0,0-2.057-10.434,4.308,4.308,0,0,0-.4-1.675c-.789-1.687-5.158-3.893-8.262-3.944-1.432-.042-2.606.364-3.034,1.484a8.56,8.56,0,0,0-.243,1.8,4.583,4.583,0,0,1-1.963,2.919,12.3,12.3,0,0,0-1.308-1.259,28.57,28.57,0,0,1-3.034-3.337s-6.308-6.532-6.775-8.322-6.769-12.54-8.171-10.668S202.1,319,202.1,319a18.976,18.976,0,0,0,2.094,3.965c.91,1,7.889,11.135,7.889,11.135l.334.692a6.063,6.063,0,0,0-3.3,3.307c-.7,2.27.828,4.551,1.884,6.675,2.057,4.145,2.351,9.43-.3,13.216-2.379,3.344-6.505,4.933-10.367,6.323a10.2,10.2,0,0,0,6.554,2.175c-.892,2.585-4.053,3.441-6.748,3.92a9.711,9.711,0,0,0,5.379,2.154,16.121,16.121,0,0,0,2.879.228h.237l.237-.018a8.243,8.243,0,0,0,.98-.124,5.149,5.149,0,0,0,3.48-2.288c.607-1.059.819-2.5,1.921-3.034a2.454,2.454,0,0,1,.91-.215h.592l4.591.046h.586c1.3-.03,2.679-.255,3.337-1.326a3.677,3.677,0,0,0,.416-1.684c.1-1.453,0-2.949.039-4.415.391,2.667.8,6.824-.173,8.359a14.261,14.261,0,0,1-2.846,3.086,5.462,5.462,0,0,0-.752.771c-.149.106-.237.164-.237.164l-.094.282a5.342,5.342,0,0,0-.74,1.717,1.193,1.193,0,0,0-.058.488c.106.215-.759,1.1-.507,1.478a13.382,13.382,0,0,0-2.57,6.371l-3.944,5.989c-2.027,5.325-5.061,5.871-5.061,5.871s-7.127-4.782-7.321-5.015a27.531,27.531,0,0,0-2.919-1.4,3.089,3.089,0,0,0-1.4-1.28c-.934-.388-1.013-1.82-1.013-1.82-.115-3.383-2.1-3.641-2.1-3.641a6.456,6.456,0,0,0-3.765.671l-.285.021c-1.377.112-3.034.237-4.854.358-5.064.334-6.268,3.614-6.268,3.614a1.009,1.009,0,0,0,.194,1.459c.816.758,6.041,0,6.262-.018a3.393,3.393,0,0,1-1.189-.082c.822-.03,1.954-.061,2.919-.061h.234a12.625,12.625,0,0,0-.088,1.541c0,.971,2.685,1.593,2.685,1.593L198,397.523a32.388,32.388,0,0,1,8.41,5.6c3.271,3.3,6.162.452,6.162.452,3.462-.856,13.423-12.9,13.432-12.91h0c0,.352.209,12.063.607,14.415h0a1.563,1.563,0,0,0,.088.349c.467,1.01-.158,3.771-.428,4.936a13.715,13.715,0,0,0-.2,2.955s-3.735,14.26-3.425,15.513-2.024,7.075-2.024,7.075v4.854l.407-.021a2.628,2.628,0,0,0-.146.243l-.027.052a17.265,17.265,0,0,0,4.166.388c1.675-.155,4.551,1.289,4.551,1.289a12.672,12.672,0,0,0,3.972.655c3,.194,3-1.323,3-1.323-.343-2.066-5.079-2.758-5.225-2.779-.382-.24-.74-.5-1.035-.725l-.061-.049a1.3,1.3,0,0,0,.052-.14c.507-2.063-2.3-2.958-2.3-2.958v-.5c1.82-.935,2.181-7.348,2.181-7.348s2.731-7.931,3.113-9.254a8.746,8.746,0,0,0,0-3.3l.273-1.711a8.417,8.417,0,0,0,.586-1.4,3.456,3.456,0,0,1,.661-1.632c.428-.507-.467-1.711-.467-1.711l.78-2.021V404.3l1.82-8.046s1.908-9.372,1.247-12.44.78-4.627.78-4.627a3.829,3.829,0,0,1-.4.182,11.589,11.589,0,0,0,.47-1.293l4.1.507v.061H244.6s-.467-5.765-.467-8.089,1.575-10.665,1.575-10.665S246.408,351.733,245.707,351.5Zm-18.183-6.73c0,.228-.021.464-.036.707l-.082.124-.152-.127-.185.288-.055.027c-.4-.206-.607-1.387-.9-1.132l-.039.033c-.064-.073-.127-.094-.194-.033l-.061.052v-.27a6.826,6.826,0,0,0,1.7.215C227.527,344.694,227.524,344.734,227.524,344.77Zm13.623,26.845h.088l-.146.382C241.107,371.87,241.126,371.746,241.147,371.616Zm-14.955,68.8-.558-.14.3-.052.282.185.033.024Zm5.7-.816c-.185-.1-.373-.209-.555-.325C231.4,439.311,231.641,439.436,231.9,439.6Z" transform="translate(-132.909 -247.547)" fill="url(#linear-gradient-2)"/>
    <path id="Path_1228" data-name="Path 1228" d="M349.108,390.03l-3.674,9.575h.892l-3.456,2.755,6.238.777Z" transform="translate(-238.856 -271.693)" fill="#565656"/>
    <path id="Path_1230" data-name="Path 1230" d="M344.44,370.27H350.2l2.115-17.4H344.44Z" transform="translate(-239.949 -245.807)" fill="#565656"/>
    <path id="Path_1232" data-name="Path 1232" d="M334,446.509l1.244-.209,2.858-.485s8.583-1.936,10.355-2.093a11.066,11.066,0,0,0,3.107-.886c.464-.2.759-.352.759-.352l-3.092-5.646-4.8-3.556s-3.034-.646-4.317-2.412a2.843,2.843,0,0,1-.4-2.694c.783-2.427-4.675,2.321-4.675,2.321s.052,1.138,0,2.588c0,.285-.027.583-.049.886a5.973,5.973,0,0,1-.049.607,9.758,9.758,0,0,1-.947,3.811C332.683,440.553,334,446.509,334,446.509Z" transform="translate(-240.766 -335.326)" fill="#fbbebe"/>
    <path id="Path_1233" data-name="Path 1233" d="M338.79,433.482h.121c.218,0,.394-.464.607-.485a6.293,6.293,0,0,0,4.351-1.732,2.846,2.846,0,0,1-.4-2.691c.783-2.427-4.675,2.318-4.675,2.318S338.854,432.032,338.79,433.482Z" transform="translate(-244.509 -335.603)" opacity="0.1"/>
    <path id="Path_1234" data-name="Path 1234" d="M316.89,408.394a6.648,6.648,0,0,0,6.651,6.651,4.637,4.637,0,0,0,.649-.03,6.651,6.651,0,1,0-7.3-6.62Z" transform="translate(-229.254 -317.396)" fill="#fbbebe"/>
    <path id="Path_1235" data-name="Path 1235" d="M267.682,386.993a8.182,8.182,0,0,0-.24,1.793c-.325,2.157-2.518,3.45-4.5,4.354s-4.223,1.975-4.854,4.06c-.692,2.254.819,4.515,1.869,6.629,2.045,4.12,2.336,9.375-.3,13.144-2.345,3.337-6.432,4.921-10.279,6.311a10.134,10.134,0,0,0,6.508,2.166c-.883,2.57-4.023,3.422-6.7,3.9a9.625,9.625,0,0,0,5.343,2.142,12.115,12.115,0,0,0,4.248.079,5.1,5.1,0,0,0,3.453-2.276c.607-1.053.813-2.488,1.908-3.019a3.453,3.453,0,0,1,1.556-.228l4.551.049c1.417,0,3.095-.109,3.826-1.32a3.641,3.641,0,0,0,.413-1.675c.2-2.986-.376-6.141.853-8.866.37-.822-2.005-2.124-1.757-2.995a27.971,27.971,0,0,0,1.062-8.468c0-2.412,1.569-4.49,2.864-6.526s2.379-4.606,1.356-6.79C277.7,387.017,269.044,383.476,267.682,386.993Z" transform="translate(-182.087 -306.089)" fill="#3f3d56"/>
    <path id="Path_1236" data-name="Path 1236" d="M330.13,753.011l1.159.768.179.118.033.021,1.374.91,3.21.54,2.822-.194s.813-1.7-.464-1.66a2.658,2.658,0,0,1-1.165-.337l-.176-.088h0c-.185-.1-.37-.206-.552-.322h0c-.379-.24-.737-.5-1.026-.722-.425-.328-.707-.576-.707-.576Z" transform="translate(-238.476 -561.013)" fill="#fbbebe"/>
    <path id="Path_1237" data-name="Path 1237" d="M334,757.7l.179.118.033.021,1.374.91,3.21.54,2.822-.194s.813-1.7-.464-1.66a2.658,2.658,0,0,1-1.165-.337c.225.176.413.367.431.528.052.434-2.087,1.214-2.087,1.214l-3.016-.8s-.513-.146-1.214-.328l-.067-.018Z" transform="translate(-241.172 -564.935)" opacity="0.1"/>
    <path id="Path_1238" data-name="Path 1238" d="M317,757.466a17.081,17.081,0,0,0,4.135.385c1.663-.155,4.527,1.277,4.527,1.277a12.693,12.693,0,0,0,3.944.649c2.976.194,2.976-1.317,2.976-1.317-.34-2.054-5.043-2.731-5.188-2.761h0a5.8,5.8,0,0,1,.552.322h0c.334.218.695.5.722.734.052.431-2.087,1.214-2.087,1.214l-3.016-.795s-.513-.149-1.214-.331h-.067a25.877,25.877,0,0,0-3.161-.652,2.195,2.195,0,0,0-2.1,1.214A.357.357,0,0,0,317,757.466Z" transform="translate(-229.33 -563.96)" fill="#3f3d56"/>
    <path id="Path_1239" data-name="Path 1239" d="M188.54,573.728l1.314,1.007s.382-.018.953-.036h.182c.816-.03,1.942-.061,2.9-.061a9.2,9.2,0,0,1,1.848.1c.655.231,1.82-3.75,1.82-3.75l-1.317-.3-.437-.1-.3-.073-1.071-.252-3.246.37L188.9,572.1Z" transform="translate(-139.846 -434.783)" fill="#fbbebe"/>
    <path id="Path_1240" data-name="Path 1240" d="M188.54,573.728l1.314,1.007s.382-.018.953-.036a1.15,1.15,0,0,1-.607-.543c-.85-2.357,3.365-3.365,3.365-3.365l1.963-.085.382-.018h.3l-.437-.1-.3-.073-1.071-.252-3.246.37-2.282,1.469Z" transform="translate(-139.846 -434.783)" opacity="0.1"/>
    <path id="Path_1241" data-name="Path 1241" d="M179.035,572.02c.795.734,6,0,6.22-.018a3.276,3.276,0,0,1-1.18-.082,1.3,1.3,0,0,1-.91-.652c-.85-2.361,3.365-3.365,3.365-3.365l1.963-.085.379-.018,4.773-.206.231-1.314s-1.55.146-3.984.34c-1.368.112-3.034.237-4.833.355-5.027.334-6.223,3.6-6.223,3.6A1.009,1.009,0,0,0,179.035,572.02Z" transform="translate(-132.931 -432.011)" fill="#3f3d56"/>
    <path id="Path_1242" data-name="Path 1242" d="M371.706,332.365a1.346,1.346,0,0,0,.115.206l1.159,1.7,3.016.3.033-1.2.507-17.986s2.087-12.063-1.857-11.369-1.468,11.369-1.468,11.369-.449,5.413-.765,7.039C372.139,324,370.765,330.393,371.706,332.365Z" transform="translate(-267.212 -249.304)" fill="#fbbebe"/>
    <path id="Path_1243" data-name="Path 1243" d="M350.14,541.954l.859,1.468,1.921,3.286s3.483,1.277,4.375.3a12.6,12.6,0,0,0,1.387-3.944c.3-1.262.507-2.327.507-2.327Z" transform="translate(-252.415 -414.22)" fill="#fbbebe"/>
    <path id="Path_1244" data-name="Path 1244" d="M350.14,541.988l.859,1.469a1.01,1.01,0,0,0,.146-.155c.971-1.238,5.246-.264,7.537-.185.3-1.262.507-2.327.507-2.327Z" transform="translate(-252.415 -414.255)" opacity="0.1"/>
    <path id="Path_1245" data-name="Path 1245" d="M206.16,571.86a9.2,9.2,0,0,1,1.848.1c.655.231,1.82-3.75,1.82-3.75l-1.754-.413,4.773-.206.231-1.314s-1.55.146-3.984.34a5.006,5.006,0,0,0-1.326,1.107l-.073.091A7.952,7.952,0,0,0,206.16,571.86Z" transform="translate(-152.12 -432.011)" opacity="0.1"/>
    <path id="Path_1246" data-name="Path 1246" d="M330.13,752.983l1.338.886c2-.361,3.82-.928,4.035-1.82a.3.3,0,0,0,0-.042c-.425-.328-.707-.576-.707-.576Z" transform="translate(-238.476 -560.985)" opacity="0.1"/>
    <path id="Path_1247" data-name="Path 1247" d="M317.09,758.515a46.289,46.289,0,0,0,5.261-.564,25.886,25.886,0,0,0-3.165-.658A2.183,2.183,0,0,0,317.09,758.515Z" transform="translate(-229.393 -565.06)" opacity="0.1"/>
    <path id="Path_1248" data-name="Path 1248" d="M206.64,555.593c0,.968,2.667,1.587,2.667,1.587l8.122,7.23a32.1,32.1,0,0,1,8.35,5.568c3.246,3.286,6.111.464,6.111.464,3.441-.849,13.35-12.837,13.35-12.837s.231,13.69.695,14.694-.155,3.75-.425,4.912a13.654,13.654,0,0,0-.194,2.937s-3.711,14.19-3.4,15.428-2.012,7.039-2.012,7.039v4.833s9.087-.349,9.588-2.4-2.279-2.94-2.279-2.94v-.5c1.82-.928,2.163-7.306,2.163-7.306s2.709-7.889,3.095-9.2a8.6,8.6,0,0,0,0-3.289l.27-1.7a8.483,8.483,0,0,0,.58-1.393,3.441,3.441,0,0,1,.658-1.623c.425-.5-.464-1.7-.464-1.7l.774-2.012v-2.2l1.82-8s1.9-9.321,1.238-12.376.774-4.6.774-4.6c-3.1,1.626-4.669-1.993-5.182-3.55-.13-.4-.194-.667-.194-.667a21.705,21.705,0,0,0-8.231-1.2,9.474,9.474,0,0,0-2.364.5c-4.408,1.587-5.1,8.159-5.1,8.159l-3.9,5.956c-2.012,5.3-5.027,5.838-5.027,5.838s-7.075-4.754-7.282-4.988a28.35,28.35,0,0,0-2.9-1.393,3.065,3.065,0,0,0-1.393-1.274c-.928-.388-1-1.82-1-1.82-.115-3.365-2.087-3.641-2.087-3.641C206.6,547.552,206.64,554.628,206.64,555.593Z" transform="translate(-152.454 -414.212)" fill="#3f3d56"/>
    <rect id="Rectangle_692" data-name="Rectangle 692" width="4.175" height="12.952" transform="translate(97.725 122.476) rotate(180)" fill="#565656"/>
    <path id="Path_1249" data-name="Path 1249" d="M372.439,397.41a.185.185,0,0,0,0,.027,1.346,1.346,0,0,0,.115.206l1.159,1.7,3.016.3.033-1.2A12.041,12.041,0,0,1,372.439,397.41Z" transform="translate(-267.948 -314.377)" opacity="0.1"/>
    <path id="Path_1250" data-name="Path 1250" d="M363.851,398.18s.155,6.8-1.547,7.731-2.364,5.765-2.364,5.765,5.158,3.392,6.308,4.885,3.79,5.049,3.246,5.9,1.317,4.718,1.317,4.718-3.4,6.96-2.631,9.591.85,9.588.85,9.588H370.5s-.464-5.722-.464-8.043,1.544-10.595,1.544-10.595.7-8.119,0-8.35-4.794-3.48-5.1-4.952,2.166-15.17,2.166-15.17A13.543,13.543,0,0,1,363.851,398.18Z" transform="translate(-259.242 -314.913)" fill="#8b8b8b"/>
    <path id="Path_1251" data-name="Path 1251" d="M336.12,454.06a6.62,6.62,0,0,0,1.01,2.652l2.858-.485s8.583-1.936,10.355-2.093a11.066,11.066,0,0,0,3.107-.886,13.7,13.7,0,0,0-3.838-6.3l-1.089-1.01a18.25,18.25,0,0,0-5.492-3.51c.127.106,9.133,7.794,7.16,9.3s-7.282-2.163-7.282-2.163l-6.038-5.188-.218-.188-.349.543a5.071,5.071,0,0,1,.519.249,8.884,8.884,0,0,1,4.248,5.279C342.313,454.436,336.12,454.06,336.12,454.06Z" transform="translate(-242.649 -345.738)" opacity="0.1"/>
    <path id="Path_1252" data-name="Path 1252" d="M330,541.874s5.722,3.171,7.112,1.393a2.364,2.364,0,0,1,1.742-.607c-.13-.4-.194-.668-.194-.668a21.706,21.706,0,0,0-8.231-1.2C330.167,541.452,330,541.874,330,541.874Z" transform="translate(-238.386 -414.219)" fill="#444053"/>
    <path id="Path_1253" data-name="Path 1253" d="M332.634,444.22l6.256,5.382s5.288,3.683,7.282,2.163-7.163-9.305-7.163-9.305h0a18.508,18.508,0,0,1,5.489,3.5l1.089,1.01c2.864,2.655,3.51,2.655,3.608,6.557a5.483,5.483,0,0,1-.555,2.591c-.928.91-1.578,7.521-1.435,8.3s-1.729,7.452-1.123,9.308-7.585-.928-8.972.853S330,473.183,330,473.183s3.171-8.122,3.944-8.662,1.7-4.718,0-6.651a7.214,7.214,0,0,1-1.854-3.79s6.189.382,4.949-3.79a8.756,8.756,0,0,0-4.757-5.528Z" transform="translate(-238.386 -345.759)" fill="#e8e8f0"/>
    <path id="Path_1254" data-name="Path 1254" d="M351.29,493.38s-2.4,4.524-5.5,5.7c-.1.036-.2.07-.3.1C342.243,500.164,351.533,494.782,351.29,493.38Z" transform="translate(-248.693 -381.229)" opacity="0.1"/>
    <path id="Path_1255" data-name="Path 1255" d="M244.093,338.09a18.06,18.06,0,0,0,2.087,3.944c.928,1,7.81,11.059,7.81,11.059l.583,1.214.5,1.035,4.408-.464.3-1.778-.17-.206a20.83,20.83,0,0,0-2.461-2.579,28.5,28.5,0,0,1-3.016-3.322s-6.262-6.5-6.726-8.277-6.73-12.44-8.119-10.595S244.093,338.09,244.093,338.09Z" transform="translate(-175.058 -265.961)" fill="#fbbebe"/>
    <g id="Group_690" data-name="Group 690" transform="translate(74.071 79.426)" opacity="0.1">
      <path id="Path_1256" data-name="Path 1256" d="M279.935,519.07a3.454,3.454,0,0,0-1.556.224c-1.092.531-1.3,1.966-1.905,3.019a5.1,5.1,0,0,1-3.456,2.276,7.707,7.707,0,0,1-.837.115,9.509,9.509,0,0,0,2.658-.115,5.1,5.1,0,0,0,3.456-2.276c.607-1.053.813-2.488,1.905-3.019a2.426,2.426,0,0,1,.91-.212Z" transform="translate(-272.18 -478.542)"/>
      <path id="Path_1257" data-name="Path 1257" d="M320.735,402.775c0-2.412,1.569-4.49,2.861-6.526s2.379-4.606,1.356-6.79c-.874-1.866-6.141-4.369-9.181-3.874,2.976.385,6.645,2.345,7.361,3.874,1.022,2.185-.064,4.754-1.356,6.79s-2.867,4.114-2.861,6.526a28.325,28.325,0,0,1-1.065,8.468c-.246.865,2.124,2.172,1.76,2.992-1.232,2.731-.655,5.88-.853,8.866a3.686,3.686,0,0,1-.416,1.675,3.547,3.547,0,0,1-3.061,1.311h1.059c1.414,0,3.092-.109,3.823-1.32a3.686,3.686,0,0,0,.416-1.675c.2-2.986-.379-6.138.853-8.865.37-.819-2.006-2.124-1.76-2.992A27.988,27.988,0,0,0,320.735,402.775Z" transform="translate(-302.203 -385.521)"/>
    </g>
    <path id="Path_1258" data-name="Path 1258" d="M290.12,411.654l.5,1.035,4.408-.464.3-1.778-.17-.206C294.692,410.471,291.17,412.167,290.12,411.654Z" transform="translate(-210.606 -323.314)" opacity="0.1"/>
    <path id="Path_1259" data-name="Path 1259" d="M306.976,423.757s-1.083-1.7-1.7-1.238-.859-1.393-1.214-1.083-1.39,1.171-1.82-.033c-.337-.959-4-7.024-5.489-9.463-.382-.631-.622-1.019-.622-1.019s-4.175,2.087-5.179,1.393v1.468l.85.079,4.551,8.5s1.432,2.279,1.335,3.074,1.836,4.275,2.145,4.506,3.641,4.1,3.641,4.1,1.7,8.353.231,10.674a15.835,15.835,0,0,1-4.02,4.02,12.981,12.981,0,0,0-.655,2.476c.112.234-.892,1.238-.428,1.547s1.083,2.473,1.083,2.473,2.166-3.48,3.337-4.02,2.67-7.658,2.67-7.658.428-4.193.461-6.9S306.047,423.757,306.976,423.757Z" transform="translate(-211.184 -323.788)" opacity="0.1"/>
    <path id="Path_1260" data-name="Path 1260" d="M306.206,423.757s-1.08-1.7-1.7-1.238-.862-1.393-1.214-1.083-1.387,1.171-1.82-.033c-.34-.959-4-7.024-5.489-9.463l-.622-1.019s-4.175,2.087-5.182,1.393v1.468l.853.079,4.551,8.5s1.435,2.279,1.335,3.074,1.82,4.275,2.145,4.506,3.641,4.1,3.641,4.1,1.7,8.353.234,10.674a14.223,14.223,0,0,1-2.8,3.1,5.413,5.413,0,0,0-1.82,2.919,1.153,1.153,0,0,0-.055.485c.112.231-.892,1.238-.428,1.547s1.089,2.482,1.089,2.482,2.166-3.48,3.337-4.02,2.673-7.658,2.673-7.658.425-4.193.461-6.9S305.3,423.757,306.206,423.757Z" transform="translate(-210.647 -323.788)" fill="#8b8b8b"/>
    <path id="Path_1261" data-name="Path 1261" d="M307.167,569.21a15.555,15.555,0,0,1,4.551,1.544c1.3.938-4.949-1.469-4.949-1.469Z" transform="translate(-222.204 -434.052)" opacity="0.1"/>
    <path id="Path_1262" data-name="Path 1262" d="M333.83,596.35s3.389,2.825,2.782,5.376-2.172,8.972-2.172,8.972Z" transform="translate(-241.054 -452.957)" opacity="0.1"/>
    <path id="Path_1263" data-name="Path 1263" d="M225.853,578.45s-4.776.522-4.466,1.141,4.466-.57,4.466-.57Z" transform="translate(-162.716 -440.488)" opacity="0.1"/>
    <path id="Path_1264" data-name="Path 1264" d="M351.5,652.255s.3.385-1.468,0-.464-1.575-.464-1.575Z" transform="translate(-251.69 -490.803)" opacity="0.1"/>
    <path id="Path_1265" data-name="Path 1265" d="M345.945,673.067a11.287,11.287,0,0,1-3.729,0C340.914,672.682,345.945,673.067,345.945,673.067Z" transform="translate(-246.746 -506.279)" opacity="0.1"/>
    <path id="Path_1266" data-name="Path 1266" d="M324.335,741.989s-.425-.464-2.552.385-2.976.889-3.6.607S324.335,741.989,324.335,741.989Z" transform="translate(-230.13 -554.321)" opacity="0.1"/>
    <path id="Path_1267" data-name="Path 1267" d="M339.4,576.28l-3.016,4.2S338,576.8,339.4,576.28Z" transform="translate(-242.83 -438.977)" opacity="0.1"/>
    <path id="Path_1268" data-name="Path 1268" d="M316.92,449.15s-.13,1.393-2.075,1.936a5.315,5.315,0,0,0-2.315.983" transform="translate(-226.216 -350.419)" opacity="0.1"/>
    <path id="Path_1269" data-name="Path 1269" d="M298.3,415.88a8.324,8.324,0,0,1-5.246,1.435" transform="translate(-212.647 -327.243)" opacity="0.1"/>
    <path id="Path_1270" data-name="Path 1270" d="M316.78,540.707s.749.47,2.549-1.587" transform="translate(-229.177 -413.091)" opacity="0.1"/>
    <path id="Path_1271" data-name="Path 1271" d="M373.146,466.769a1.318,1.318,0,0,0-.434-1.019l-.5-.607a2.335,2.335,0,0,0-.331-.34c-.3-.234-.692-.3-1.007-.513" transform="translate(-266.856 -360.965)" opacity="0.1"/>
  </g>
</svg>
